<?xml version="1.0" encoding="utf-8" standalone="no"?>
<!DOCTYPE svg PUBLIC "-//W3C//DTD SVG 1.1//EN"
  "http://www.w3.org/Graphics/SVG/1.1/DTD/svg11.dtd">
<svg xmlns:xlink="http://www.w3.org/1999/xlink" width="2296.8pt" height="1432.8pt" viewBox="0 0 2296.8 1432.8" xmlns="http://www.w3.org/2000/svg" version="1.1">
 <metadata>
  <rdf:RDF xmlns:dc="http://purl.org/dc/elements/1.1/" xmlns:cc="http://creativecommons.org/ns#" xmlns:rdf="http://www.w3.org/1999/02/22-rdf-syntax-ns#">
   <cc:Work>
    <dc:type rdf:resource="http://purl.org/dc/dcmitype/StillImage"/>
    <dc:date>2026-05-16T02:40:03.200872</dc:date>
    <dc:format>image/svg+xml</dc:format>
    <dc:creator>
     <cc:Agent>
      <dc:title>Matplotlib v3.10.8, https://matplotlib.org/</dc:title>
     </cc:Agent>
    </dc:creator>
   </cc:Work>
  </rdf:RDF>
 </metadata>
 <defs>
  <style type="text/css">*{stroke-linejoin: round; stroke-linecap: butt}</style>
 </defs>
 <g id="figure_1">
  <g id="patch_1">
   <path d="M 0 1432.8 
L 2296.8 1432.8 
L 2296.8 0 
L 0 0 
z
" style="fill: #ffffff"/>
  </g>
  <g id="axes_1">
   <g id="patch_2">
    <path d="M 351.69975 1285.1784 
L 1945.10025 1285.1784 
Q 1970.064 1285.1784 1970.064 1260.3564 
L 1970.064 136.9836 
Q 1970.064 112.1616 1945.10025 112.1616 
L 351.69975 112.1616 
Q 326.736 112.1616 326.736 136.9836 
L 326.736 1260.3564 
Q 326.736 1285.1784 351.69975 1285.1784 
z
" clip-path="url(#pb9549f5136)" style="fill: #fafafa; stroke: #2c3e50; stroke-width: 4; stroke-linejoin: miter"/>
   </g>
   <g id="patch_3">
    <path d="M 1373.07375 805.05 
L 1850.95125 805.05 
Q 1865.21625 805.05 1865.21625 790.866 
L 1865.21625 230.598 
Q 1865.21625 216.414 1850.95125 216.414 
L 1373.07375 216.414 
Q 1358.80875 216.414 1358.80875 230.598 
L 1358.80875 790.866 
Q 1358.80875 805.05 1373.07375 805.05 
z
" clip-path="url(#pb9549f5136)" style="fill: #f5eef8; stroke: #8e44ad; stroke-width: 4; stroke-linejoin: miter"/>
   </g>
   <g id="patch_4">
    <path d="M 445.84875 802.9224 
L 852.40125 802.9224 
Q 866.66625 802.9224 866.66625 788.7384 
L 866.66625 575.9784 
Q 866.66625 561.7944 852.40125 561.7944 
L 445.84875 561.7944 
Q 431.58375 561.7944 431.58375 575.9784 
L 431.58375 788.7384 
Q 431.58375 802.9224 445.84875 802.9224 
z
" clip-path="url(#pb9549f5136)" style="fill: #e8f8f5; stroke: #16a085; stroke-width: 3.5; stroke-linejoin: miter"/>
   </g>
   <g id="patch_5">
    <path d="M 1373.07375 1180.926 
L 1850.95125 1180.926 
Q 1865.21625 1180.926 1865.21625 1166.742 
L 1865.21625 953.982 
Q 1865.21625 939.798 1850.95125 939.798 
L 1373.07375 939.798 
Q 1358.80875 939.798 1358.80875 953.982 
L 1358.80875 1166.742 
Q 1358.80875 1180.926 1373.07375 1180.926 
z
" clip-path="url(#pb9549f5136)" style="fill: #fdedec; stroke-dasharray: 12.95,5.6; stroke-dashoffset: 0; stroke: #c0392b; stroke-width: 3.5; stroke-linejoin: miter"/>
   </g>
   <g id="patch_6">
    <path d="M 435.15 1390.14 
L 513.6075 1390.14 
L 513.6075 1340.496 
L 435.15 1340.496 
z
" clip-path="url(#pb9549f5136)" style="fill: #ffffff; stroke: #2c3e50; stroke-width: 4; stroke-linejoin: miter"/>
   </g>
   <g id="patch_7">
    <path d="M 827.4375 1390.14 
L 905.895 1390.14 
L 905.895 1340.496 
L 827.4375 1340.496 
z
" clip-path="url(#pb9549f5136)" style="fill: #ffffff; stroke-dasharray: 14.8,6.4; stroke-dashoffset: 0; stroke: #c0392b; stroke-width: 4; stroke-linejoin: miter"/>
   </g>
   <g id="line2d_1">
    <path d="M 1383.7725 539.1 
L 1840.2525 539.1 
" clip-path="url(#pb9549f5136)" style="fill: none; stroke-dasharray: 20,15; stroke-dashoffset: 0; stroke: #8e44ad; stroke-opacity: 0.7; stroke-width: 2.5"/>
   </g>
   <g id="text_1">
    <!-- Docker Container: cement-rag -->
    <g style="fill: #2c3e50" transform="translate(835.87125 161.13375) scale(0.48 -0.48)">
     <defs>
      <path id="WenQuanYiZenHei-44" d="M 3975 2206 
Q 3975 1213 3438 581 
Q 2931 0 2113 0 
L 544 0 
L 544 4388 
L 1931 4388 
Q 2731 4388 3200 4013 
Q 3325 3913 3444 3769 
Q 3975 3150 3975 2206 
z
M 3419 2206 
Q 3419 2981 3013 3481 
Q 2700 3875 2150 3925 
L 1900 3931 
L 1094 3931 
L 1094 469 
L 1900 469 
Q 2631 469 2988 875 
Q 3044 944 3100 1025 
Q 3419 1513 3419 2206 
z
" transform="scale(0.015625)"/>
      <path id="WenQuanYiZenHei-6f" d="M 3175 1644 
Q 3175 813 2681 331 
Q 2281 -63 1663 -63 
Q 856 -63 481 656 
Q 256 1088 256 1650 
Q 256 2494 763 2969 
Q 1150 3338 1750 3338 
Q 2525 3338 2919 2656 
Q 3175 2219 3175 1644 
z
M 2619 1650 
Q 2619 2481 2181 2788 
Q 1981 2925 1706 2925 
Q 1069 2925 875 2188 
Q 813 1938 813 1650 
Q 813 750 1288 463 
Q 1463 350 1706 350 
Q 2400 350 2575 1169 
Q 2619 1394 2619 1650 
z
" transform="scale(0.015625)"/>
      <path id="WenQuanYiZenHei-63" d="M 2856 1075 
Q 2725 350 2181 69 
Q 1919 -63 1600 -63 
Q 788 -63 425 675 
Q 219 1088 219 1625 
Q 219 2456 663 2938 
Q 1031 3338 1606 3338 
Q 2369 3338 2700 2694 
Q 2813 2475 2856 2206 
L 2394 2125 
Q 2344 2631 1969 2831 
Q 1856 2894 1706 2906 
Q 1663 2913 1619 2913 
Q 1019 2913 819 2206 
Q 750 1950 750 1656 
Q 750 863 1119 531 
Q 1313 363 1588 363 
Q 2194 363 2375 1069 
Q 2388 1113 2394 1156 
L 2856 1075 
z
" transform="scale(0.015625)"/>
      <path id="WenQuanYiZenHei-6b" d="M 3150 0 
L 2619 0 
L 1669 1813 
L 975 1006 
L 975 0 
L 475 0 
L 475 4388 
L 975 4388 
L 975 1581 
L 2475 3238 
L 3013 3238 
L 2006 2100 
L 3150 0 
z
" transform="scale(0.015625)"/>
      <path id="WenQuanYiZenHei-65" d="M 3163 1588 
L 800 1588 
Q 794 963 1088 631 
Q 1331 356 1769 356 
Q 2313 356 2569 831 
Q 2606 900 2638 988 
L 3113 888 
Q 2931 325 2363 69 
Q 2063 -63 1725 -63 
Q 888 -63 488 625 
Q 238 1050 238 1625 
Q 238 2431 725 2925 
Q 1125 3338 1744 3338 
Q 2588 3338 2956 2606 
Q 3163 2200 3163 1663 
L 3163 1588 
z
M 2613 1956 
Q 2619 2488 2288 2763 
Q 2063 2950 1744 2950 
Q 1250 2950 988 2500 
Q 838 2256 825 1956 
L 2613 1956 
z
" transform="scale(0.015625)"/>
      <path id="WenQuanYiZenHei-72" d="M 2063 2850 
L 1956 2850 
Q 1356 2850 1094 2281 
Q 963 1988 963 1638 
L 963 0 
L 463 0 
L 463 3250 
L 906 3250 
L 906 2488 
L 919 2488 
Q 1219 3344 1819 3344 
Q 1894 3344 2063 3325 
L 2063 2850 
z
" transform="scale(0.015625)"/>
      <path id="WenQuanYiZenHei-20" transform="scale(0.015625)"/>
      <path id="WenQuanYiZenHei-43" d="M 3681 1369 
Q 3388 163 2413 -31 
Q 2238 -63 2056 -63 
Q 1075 -63 588 844 
Q 269 1444 269 2238 
Q 269 3294 819 3913 
Q 1306 4456 2100 4456 
Q 3031 4456 3469 3638 
Q 3613 3375 3681 3050 
L 3163 2956 
Q 2906 3894 2244 3981 
Q 2163 3994 2081 3994 
Q 1281 3994 994 3075 
Q 869 2675 869 2194 
Q 869 1350 1231 838 
Q 1544 394 2056 394 
Q 2888 394 3163 1406 
Q 3175 1444 3181 1481 
L 3681 1369 
z
" transform="scale(0.015625)"/>
      <path id="WenQuanYiZenHei-6e" d="M 3013 0 
L 2513 0 
L 2513 2013 
Q 2513 2425 2444 2575 
Q 2438 2594 2425 2613 
Q 2288 2856 1956 2900 
Q 1913 2906 1869 2906 
Q 1263 2906 1038 2288 
Q 944 2019 944 1700 
L 944 0 
L 444 0 
L 444 3250 
L 913 3250 
L 913 2650 
L 925 2650 
Q 1156 3150 1644 3288 
Q 1788 3338 1938 3338 
Q 2544 3338 2844 2856 
L 2863 2831 
Q 3013 2569 3013 1931 
L 3013 0 
z
" transform="scale(0.015625)"/>
      <path id="WenQuanYiZenHei-74" d="M 1994 -25 
L 1406 -69 
Q 594 -69 594 1000 
L 594 2881 
L 19 2881 
L 19 3275 
L 594 3275 
L 594 4081 
L 1094 4138 
L 1094 3275 
L 1819 3275 
L 1819 2881 
L 1094 2881 
L 1094 913 
Q 1150 363 1538 331 
Q 1538 331 1994 369 
L 1994 -25 
z
" transform="scale(0.015625)"/>
      <path id="WenQuanYiZenHei-61" d="M 3181 0 
L 2681 0 
L 2625 606 
Q 2294 -63 1488 -63 
Q 856 -63 544 331 
Q 350 575 350 919 
Q 350 1400 763 1706 
Q 850 1781 956 1825 
Q 1375 2025 2344 2019 
L 2625 2019 
L 2625 2156 
Q 2625 2756 2200 2894 
L 1975 2938 
Q 1894 2944 1800 2944 
Q 1025 2944 906 2369 
L 444 2444 
Q 525 3075 1281 3263 
Q 1544 3338 1844 3338 
Q 2675 3338 2931 2894 
Q 3113 2594 3113 1944 
L 3113 688 
Q 3113 244 3181 0 
z
M 2625 1425 
L 2625 1638 
L 2206 1638 
Q 888 1638 888 894 
Q 888 488 1319 363 
Q 1444 325 1594 325 
Q 2125 325 2425 769 
Q 2625 1063 2625 1425 
z
" transform="scale(0.015625)"/>
      <path id="WenQuanYiZenHei-69" d="M 1044 3825 
L 494 3825 
L 494 4388 
L 1044 4388 
L 1044 3825 
z
M 1019 0 
L 519 0 
L 519 3250 
L 1019 3250 
L 1019 0 
z
" transform="scale(0.015625)"/>
      <path id="WenQuanYiZenHei-3a" d="M 1344 2525 
L 631 2525 
L 631 3250 
L 1344 3250 
L 1344 2525 
z
M 1344 0 
L 631 0 
L 631 725 
L 1344 725 
L 1344 0 
z
" transform="scale(0.015625)"/>
      <path id="WenQuanYiZenHei-6d" d="M 4813 0 
L 4313 0 
L 4313 2069 
Q 4313 2763 3881 2900 
Q 3788 2925 3681 2925 
Q 3313 2925 3050 2563 
Q 2881 2306 2875 1863 
L 2875 1756 
L 2875 0 
L 2375 0 
L 2375 2063 
Q 2375 2750 1931 2894 
Q 1838 2925 1719 2925 
Q 1413 2925 1163 2644 
Q 1144 2625 1131 2606 
Q 938 2356 938 1863 
L 938 0 
L 438 0 
L 438 3250 
L 888 3250 
L 888 2625 
L 900 2625 
Q 1100 3100 1531 3269 
Q 1694 3338 1875 3338 
Q 2394 3338 2663 2888 
Q 2750 2738 2788 2563 
Q 3013 3119 3506 3281 
Q 3669 3338 3838 3338 
Q 4263 3338 4556 3006 
L 4656 2869 
Q 4813 2606 4813 2050 
L 4813 0 
z
" transform="scale(0.015625)"/>
      <path id="WenQuanYiZenHei-2d" d="M 1363 1444 
L 0 1444 
L 0 1844 
L 1363 1844 
L 1363 1444 
z
" transform="scale(0.015625)"/>
      <path id="WenQuanYiZenHei-67" d="M 3194 -294 
Q 3194 -1231 1588 -1231 
Q 75 -1231 75 -381 
Q 75 100 569 275 
Q 256 475 256 788 
Q 256 1131 613 1325 
Q 650 1344 706 1369 
Q 281 1700 281 2225 
Q 281 2831 800 3144 
Q 1119 3338 1531 3338 
Q 1888 3338 2188 3194 
Q 2263 3638 2588 3725 
Q 2700 3756 2850 3756 
Q 2994 3756 3063 3750 
L 3075 3350 
Q 2688 3350 2569 3238 
L 2494 3150 
L 2450 3006 
Q 2444 2988 2444 2975 
Q 2756 2631 2756 2175 
Q 2756 1594 2225 1294 
Q 1906 1113 1519 1113 
L 1081 1163 
L 1075 1163 
Q 888 1163 781 1013 
Q 731 944 731 863 
Q 731 650 975 588 
Q 1194 525 1838 531 
Q 2413 531 2694 425 
Q 3050 281 3163 -75 
Q 3194 -188 3194 -294 
z
M 2250 2225 
Q 2250 2619 1925 2831 
Q 1750 2938 1531 2938 
Q 1100 2938 900 2606 
Q 800 2431 800 2219 
Q 800 1738 1194 1569 
Q 1344 1506 1531 1506 
Q 1994 1506 2175 1875 
Q 2250 2038 2250 2225 
z
M 2713 -313 
Q 2713 56 1969 69 
L 1700 75 
Q 1456 88 919 125 
Q 569 -38 569 -313 
Q 569 -738 1313 -819 
Q 1450 -838 1594 -838 
Q 2525 -838 2688 -463 
Q 2713 -388 2713 -313 
z
" transform="scale(0.015625)"/>
     </defs>
     <use xlink:href="#WenQuanYiZenHei-44"/>
     <use xlink:href="#WenQuanYiZenHei-6f" transform="translate(65.917969 0)"/>
     <use xlink:href="#WenQuanYiZenHei-63" transform="translate(119.824219 0)"/>
     <use xlink:href="#WenQuanYiZenHei-6b" transform="translate(167.773438 0)"/>
     <use xlink:href="#WenQuanYiZenHei-65" transform="translate(217.773438 0)"/>
     <use xlink:href="#WenQuanYiZenHei-72" transform="translate(271.679688 0)"/>
     <use xlink:href="#WenQuanYiZenHei-20" transform="translate(303.613281 0)"/>
     <use xlink:href="#WenQuanYiZenHei-43" transform="translate(333.59375 0)"/>
     <use xlink:href="#WenQuanYiZenHei-6f" transform="translate(395.507812 0)"/>
     <use xlink:href="#WenQuanYiZenHei-6e" transform="translate(449.414062 0)"/>
     <use xlink:href="#WenQuanYiZenHei-74" transform="translate(503.320312 0)"/>
     <use xlink:href="#WenQuanYiZenHei-61" transform="translate(535.253906 0)"/>
     <use xlink:href="#WenQuanYiZenHei-69" transform="translate(589.160156 0)"/>
     <use xlink:href="#WenQuanYiZenHei-6e" transform="translate(613.085938 0)"/>
     <use xlink:href="#WenQuanYiZenHei-65" transform="translate(666.992188 0)"/>
     <use xlink:href="#WenQuanYiZenHei-72" transform="translate(720.898438 0)"/>
     <use xlink:href="#WenQuanYiZenHei-3a" transform="translate(752.832031 0)"/>
     <use xlink:href="#WenQuanYiZenHei-20" transform="translate(782.8125 0)"/>
     <use xlink:href="#WenQuanYiZenHei-63" transform="translate(812.792969 0)"/>
     <use xlink:href="#WenQuanYiZenHei-65" transform="translate(860.742188 0)"/>
     <use xlink:href="#WenQuanYiZenHei-6d" transform="translate(914.648438 0)"/>
     <use xlink:href="#WenQuanYiZenHei-65" transform="translate(996.582031 0)"/>
     <use xlink:href="#WenQuanYiZenHei-6e" transform="translate(1050.488281 0)"/>
     <use xlink:href="#WenQuanYiZenHei-74" transform="translate(1104.394531 0)"/>
     <use xlink:href="#WenQuanYiZenHei-2d" transform="translate(1136.328125 0)"/>
     <use xlink:href="#WenQuanYiZenHei-72" transform="translate(1166.308594 0)"/>
     <use xlink:href="#WenQuanYiZenHei-61" transform="translate(1198.242188 0)"/>
     <use xlink:href="#WenQuanYiZenHei-67" transform="translate(1252.148438 0)"/>
    </g>
   </g>
   <g id="text_2">
    <!-- Gradio process -->
    <g style="fill: #8e44ad" transform="translate(1383.7725 260.3565) scale(0.32 -0.32)">
     <defs>
      <path id="WenQuanYiZenHei-47" d="M 3838 -31 
L 3500 -31 
L 3356 513 
Q 2981 -31 2219 -63 
Q 2175 -63 2138 -63 
Q 1150 -63 650 781 
Q 306 1363 306 2150 
Q 306 3163 831 3813 
Q 1350 4456 2206 4456 
Q 3181 4456 3619 3656 
Q 3731 3450 3794 3194 
L 3275 3063 
Q 3163 3650 2675 3888 
Q 2444 3994 2169 3994 
Q 1319 3994 1025 3050 
Q 900 2663 900 2175 
Q 900 1263 1325 769 
Q 1650 381 2175 381 
Q 2831 381 3125 881 
Q 3275 1150 3275 1513 
L 3275 1756 
L 2181 1756 
L 2181 2213 
L 3838 2213 
L 3838 -31 
z
" transform="scale(0.015625)"/>
      <path id="WenQuanYiZenHei-64" d="M 3025 0 
L 2575 0 
L 2575 575 
L 2563 575 
Q 2244 -63 1544 -63 
Q 806 -63 456 663 
Q 244 1094 244 1625 
Q 244 2425 663 2919 
Q 1025 3338 1588 3338 
Q 2156 3338 2525 2813 
L 2525 4388 
L 3025 4388 
L 3025 0 
z
M 2525 1406 
L 2525 1925 
Q 2525 2550 2119 2813 
Q 1913 2938 1631 2938 
Q 1075 2938 869 2275 
Q 781 1994 781 1681 
Q 781 775 1213 475 
Q 1381 350 1619 350 
Q 2119 350 2381 819 
Q 2525 1088 2525 1406 
z
" transform="scale(0.015625)"/>
      <path id="WenQuanYiZenHei-70" d="M 3256 1650 
Q 3256 838 2856 350 
Q 2513 -63 1969 -63 
Q 1344 -63 1000 513 
L 1000 -1063 
L 500 -1063 
L 500 3250 
L 956 3250 
L 956 2625 
L 969 2625 
Q 1169 3163 1688 3294 
Q 1825 3338 1969 3338 
Q 2713 3338 3056 2600 
Q 3256 2175 3256 1650 
z
M 2694 1631 
Q 2694 2419 2319 2731 
L 2181 2825 
Q 2038 2894 1856 2894 
Q 1419 2894 1150 2463 
Q 1106 2400 1075 2325 
Q 1000 2169 1000 2100 
L 1000 1275 
Q 1000 875 1319 581 
Q 1563 356 1856 356 
Q 2525 356 2669 1238 
Q 2694 1419 2694 1631 
z
" transform="scale(0.015625)"/>
      <path id="WenQuanYiZenHei-73" d="M 3031 944 
Q 3031 294 2350 44 
Q 2050 -63 1681 -63 
Q 863 -63 475 425 
Q 319 613 256 863 
L 744 963 
Q 806 544 1344 406 
Q 1531 350 1719 350 
Q 2250 350 2438 631 
Q 2506 744 2506 888 
Q 2506 1206 2081 1331 
L 1638 1425 
Q 988 1544 750 1688 
Q 388 1919 388 2381 
Q 388 2975 994 3219 
Q 1269 3338 1606 3338 
Q 2463 3338 2781 2781 
Q 2856 2663 2894 2513 
L 2431 2419 
Q 2275 2869 1725 2925 
Q 1663 2931 1600 2931 
Q 1150 2931 981 2688 
Q 906 2594 906 2456 
Q 906 2138 1356 2013 
Q 1413 1988 2038 1881 
Q 2456 1806 2644 1675 
Q 3031 1413 3031 944 
z
" transform="scale(0.015625)"/>
     </defs>
     <use xlink:href="#WenQuanYiZenHei-47"/>
     <use xlink:href="#WenQuanYiZenHei-72" transform="translate(65.917969 0)"/>
     <use xlink:href="#WenQuanYiZenHei-61" transform="translate(97.851562 0)"/>
     <use xlink:href="#WenQuanYiZenHei-64" transform="translate(151.757812 0)"/>
     <use xlink:href="#WenQuanYiZenHei-69" transform="translate(205.664062 0)"/>
     <use xlink:href="#WenQuanYiZenHei-6f" transform="translate(229.589844 0)"/>
     <use xlink:href="#WenQuanYiZenHei-20" transform="translate(283.496094 0)"/>
     <use xlink:href="#WenQuanYiZenHei-70" transform="translate(313.476562 0)"/>
     <use xlink:href="#WenQuanYiZenHei-72" transform="translate(367.382812 0)"/>
     <use xlink:href="#WenQuanYiZenHei-6f" transform="translate(399.316406 0)"/>
     <use xlink:href="#WenQuanYiZenHei-63" transform="translate(453.222656 0)"/>
     <use xlink:href="#WenQuanYiZenHei-65" transform="translate(501.171875 0)"/>
     <use xlink:href="#WenQuanYiZenHei-73" transform="translate(555.078125 0)"/>
     <use xlink:href="#WenQuanYiZenHei-73" transform="translate(607.03125 0)"/>
    </g>
   </g>
   <g id="text_3">
    <!-- Gradio 研究面板 -->
    <g style="fill: #8e44ad" transform="translate(1455.045938 351.133625) scale(0.44 -0.44)">
     <defs>
      <path id="WenQuanYiZenHei-7814" d="M 5213 -775 
Q 4975 -750 4731 -775 
Q 4756 -331 4756 106 
L 4756 2300 
L 3938 2300 
Q 3975 981 3381 100 
Q 3025 -438 2469 -769 
Q 2338 -525 2069 -456 
Q 2663 -194 3025 344 
Q 3544 1106 3506 2300 
L 2725 2288 
Q 2744 2463 2725 2638 
L 3506 2619 
L 3506 4550 
Q 3244 4550 2988 4538 
Q 3006 4713 2988 4888 
Q 3313 4875 3638 4875 
L 5325 4875 
Q 5650 4875 5975 4888 
Q 5956 4713 5975 4538 
L 5188 4556 
L 5188 2619 
L 5488 2619 
Q 5813 2619 6131 2638 
Q 6113 2463 6131 2288 
Q 5813 2300 5488 2300 
L 5188 2300 
L 5188 106 
Q 5188 -331 5213 -775 
z
M 1169 119 
L 738 119 
L 738 2125 
Q 619 1950 488 1769 
Q 325 1938 100 1981 
Q 506 2481 738 3056 
L 738 3119 
L 763 3119 
Q 969 3706 1063 4431 
L 306 4419 
Q 325 4594 306 4769 
Q 625 4750 950 4750 
L 2019 4750 
Q 2344 4750 2669 4769 
Q 2650 4594 2669 4419 
Q 2344 4431 2019 4431 
L 1519 4431 
Q 1494 3769 1250 3119 
L 2475 3119 
L 2475 119 
L 2044 119 
L 2044 688 
L 1169 688 
L 1169 119 
z
M 4756 2619 
L 4756 4556 
L 3938 4556 
L 3938 2619 
L 4756 2619 
z
M 2044 2800 
L 1169 2800 
L 1169 1006 
L 2044 1006 
L 2044 2800 
z
" transform="scale(0.015625)"/>
      <path id="WenQuanYiZenHei-7a76" d="M 2381 1513 
L 2381 1775 
L 1713 1775 
Q 1363 1775 1013 1763 
Q 1031 1950 1013 2138 
Q 1363 2125 1713 2125 
L 2381 2125 
L 2356 3050 
Q 2600 3025 2850 3050 
L 2825 2125 
L 4356 2125 
L 4363 -50 
Q 4363 -206 4416 -312 
Q 4469 -419 4575 -419 
L 5494 -419 
Q 5575 -413 5594 -338 
Q 5631 -219 5638 -88 
L 5744 694 
Q 5888 513 6119 494 
L 5963 -588 
Q 5950 -644 5906 -706 
Q 5863 -769 5794 -769 
L 4569 -769 
Q 3931 -738 3913 -69 
L 3913 1775 
L 2825 1775 
L 2825 1513 
Q 2825 769 2240 128 
Q 1656 -513 788 -731 
Q 725 -444 463 -306 
Q 963 -244 1400 12 
Q 1838 269 2109 669 
Q 2381 1069 2381 1513 
z
M 5550 2788 
L 5281 2356 
L 4388 2969 
Q 3944 3256 3481 3531 
L 3713 3981 
Q 4181 3706 4638 3413 
L 5550 2788 
z
M 2406 4006 
Q 2556 3794 2738 3625 
Q 2131 3006 1306 2506 
Q 1025 2331 731 2169 
Q 656 2413 475 2556 
Q 1194 2925 1844 3494 
L 2406 4006 
z
M 1075 3381 
L 631 3381 
L 631 4450 
L 3056 4450 
L 2531 5038 
L 2881 5394 
L 3519 4675 
L 3300 4450 
L 6031 4450 
L 6031 3381 
L 5588 3381 
L 5588 4094 
L 1075 4094 
L 1075 3381 
z
" transform="scale(0.015625)"/>
      <path id="WenQuanYiZenHei-9762" d="M 1069 -775 
Q 831 -750 594 -775 
Q 619 -331 619 106 
L 619 3625 
L 2175 3625 
Q 2444 3994 2738 4625 
L 763 4625 
Q 438 4625 119 4613 
Q 131 4788 119 4963 
Q 438 4944 763 4944 
L 5488 4944 
Q 5813 4944 6131 4963 
Q 6119 4788 6131 4613 
Q 5813 4625 5488 4625 
L 3231 4625 
Q 3088 4175 2700 3625 
L 5613 3625 
L 5613 -763 
L 5175 -763 
L 5175 -288 
L 1056 -288 
Q 1063 -531 1069 -775 
z
M 4113 31 
L 5175 31 
L 5175 3306 
L 4113 3306 
L 4113 31 
z
M 3675 2500 
L 3675 3306 
L 2475 3306 
L 2475 2500 
L 3675 2500 
z
M 3675 1300 
L 3675 2181 
L 2475 2181 
L 2475 1300 
L 3675 1300 
z
M 3675 31 
L 3675 981 
L 2475 981 
L 2475 31 
L 3675 31 
z
M 2044 31 
L 2044 3306 
L 1050 3306 
L 1050 31 
L 2044 31 
z
" transform="scale(0.015625)"/>
      <path id="WenQuanYiZenHei-677f" d="M 2900 2294 
L 2900 3775 
Q 2900 4219 2875 4669 
Q 3119 4644 3356 4669 
Q 3356 4606 3356 4550 
Q 3706 4519 4281 4603 
Q 4856 4688 5043 4797 
Q 5231 4906 5306 5050 
Q 5450 4856 5638 4700 
Q 5519 4563 5319 4475 
Q 5119 4388 4650 4313 
Q 4156 4231 3344 4169 
L 3338 3213 
L 5481 3213 
Q 5438 1863 4669 750 
Q 5244 31 6169 -281 
Q 5944 -419 5863 -669 
Q 5006 -356 4419 419 
Q 3794 -331 2938 -756 
Q 2781 -575 2575 -450 
Q 2525 -519 2475 -581 
Q 2275 -388 2000 -400 
Q 2506 100 2703 750 
Q 2900 1400 2900 2294 
z
M 3956 2881 
Q 4031 1875 4413 1156 
Q 4919 1944 5025 2881 
L 3956 2881 
z
M 3338 2881 
L 3338 2294 
Q 3356 631 2631 -375 
Q 3531 25 4156 806 
Q 3625 1713 3556 2881 
L 3338 2881 
z
M 400 263 
Q 238 431 -25 469 
Q 188 825 453 1337 
Q 719 1850 903 2406 
Q 1088 2963 1225 3519 
L 806 3519 
Q 494 3519 181 3500 
Q 200 3700 181 3900 
Q 494 3881 806 3881 
L 1331 3881 
L 1331 4263 
Q 1331 4719 1313 5175 
Q 1525 5150 1738 5175 
Q 1719 4719 1719 4263 
L 1719 3881 
L 2463 3900 
Q 2450 3700 2463 3500 
L 1719 3519 
L 1719 2738 
L 1888 2881 
Q 2250 2300 2556 1650 
L 2181 1413 
Q 2038 1725 1875 2019 
L 1719 2300 
L 1719 69 
Q 1719 -388 1738 -850 
Q 1525 -825 1313 -850 
Q 1331 -388 1331 69 
L 1331 2438 
Q 900 1144 400 263 
z
" transform="scale(0.015625)"/>
     </defs>
     <use xlink:href="#WenQuanYiZenHei-47"/>
     <use xlink:href="#WenQuanYiZenHei-72" transform="translate(65.917969 0)"/>
     <use xlink:href="#WenQuanYiZenHei-61" transform="translate(97.851562 0)"/>
     <use xlink:href="#WenQuanYiZenHei-64" transform="translate(151.757812 0)"/>
     <use xlink:href="#WenQuanYiZenHei-69" transform="translate(205.664062 0)"/>
     <use xlink:href="#WenQuanYiZenHei-6f" transform="translate(229.589844 0)"/>
     <use xlink:href="#WenQuanYiZenHei-20" transform="translate(283.496094 0)"/>
     <use xlink:href="#WenQuanYiZenHei-7814" transform="translate(313.476562 0)"/>
     <use xlink:href="#WenQuanYiZenHei-7a76" transform="translate(413.476562 0)"/>
     <use xlink:href="#WenQuanYiZenHei-9762" transform="translate(513.476562 0)"/>
     <use xlink:href="#WenQuanYiZenHei-677f" transform="translate(613.476562 0)"/>
    </g>
   </g>
   <g id="text_4">
    <!-- Port 7860  ·  對外 -->
    <g style="fill: #8e44ad" transform="translate(1470.270938 426.043125) scale(0.36 -0.36)">
     <defs>
      <path id="WenQuanYiZenHei-50" d="M 3388 3075 
Q 3388 2550 3031 2175 
L 3000 2144 
Q 2638 1788 1944 1788 
L 963 1788 
L 963 0 
L 413 0 
L 413 4388 
L 1881 4388 
Q 2588 4388 2938 4094 
Q 3313 3781 3381 3219 
Q 3388 3144 3388 3075 
z
M 2831 3075 
Q 2831 3688 2313 3875 
Q 2138 3931 1925 3931 
L 963 3931 
L 963 2238 
L 1888 2238 
Q 2575 2238 2763 2719 
Q 2831 2875 2831 3075 
z
" transform="scale(0.015625)"/>
      <path id="WenQuanYiZenHei-37" d="M 3400 4056 
Q 1838 2175 1838 0 
L 1275 0 
Q 1269 1438 2056 2825 
Q 2381 3400 2825 3913 
L 444 3913 
L 500 4388 
L 3400 4388 
L 3400 4056 
z
" transform="scale(0.015625)"/>
      <path id="WenQuanYiZenHei-38" d="M 3619 1175 
Q 3619 431 2850 100 
Q 2444 -63 1944 -63 
Q 1231 -63 725 269 
Q 225 594 225 1125 
Q 225 1881 1269 2281 
Q 719 2481 519 2938 
Q 444 3119 444 3319 
Q 444 4000 1144 4294 
Q 1519 4456 1963 4456 
Q 2669 4456 3094 4094 
Q 3425 3813 3425 3369 
Q 3425 2638 2575 2356 
Q 3231 2056 3450 1725 
Q 3619 1488 3619 1175 
z
M 2944 3344 
Q 2944 3906 2288 4019 
Q 2138 4044 1969 4044 
Q 1438 4044 1163 3775 
Q 1000 3613 1000 3375 
Q 1000 2925 1594 2663 
Q 1756 2588 1931 2550 
Q 2581 2725 2788 2956 
Q 2944 3125 2944 3344 
z
M 3075 1094 
Q 3075 1738 1875 2050 
Q 1094 1881 850 1463 
Q 763 1313 763 1131 
Q 763 569 1456 406 
Q 1681 344 1944 344 
Q 2519 344 2850 619 
Q 3075 813 3075 1094 
z
" transform="scale(0.015625)"/>
      <path id="WenQuanYiZenHei-36" d="M 3550 1431 
Q 3550 725 3006 288 
Q 2581 -63 1994 -63 
Q 1013 -63 563 825 
Q 288 1363 288 2081 
Q 288 3294 856 3938 
Q 1319 4456 2075 4456 
Q 2969 4456 3363 3756 
Q 3431 3631 3481 3481 
L 2988 3350 
Q 2750 3994 2075 4006 
Q 1056 4006 844 2669 
Q 794 2356 794 1981 
L 806 1981 
Q 1006 2506 1544 2744 
Q 1819 2869 2119 2869 
Q 2788 2869 3213 2375 
Q 3550 1975 3550 1431 
z
M 3038 1406 
Q 3038 1906 2656 2213 
Q 2381 2431 2038 2431 
Q 1525 2431 1181 2044 
Q 919 1744 919 1356 
Q 919 881 1344 581 
Q 1631 375 1981 375 
Q 2519 375 2838 781 
Q 3038 1050 3038 1406 
z
" transform="scale(0.015625)"/>
      <path id="WenQuanYiZenHei-30" d="M 3581 2175 
Q 3581 1288 3169 638 
Q 2713 -63 1938 -63 
Q 1025 -63 563 831 
Q 256 1425 256 2188 
Q 256 3188 700 3819 
Q 1138 4456 1888 4456 
Q 2863 4456 3306 3500 
Q 3581 2925 3581 2175 
z
M 3019 2100 
Q 3019 3356 2500 3806 
L 2350 3919 
Q 2144 4031 1888 4031 
Q 1100 4031 888 2956 
Q 819 2625 819 2225 
Q 819 1013 1338 569 
Q 1588 356 1938 356 
Q 2675 356 2925 1294 
Q 3019 1663 3019 2100 
z
" transform="scale(0.015625)"/>
      <path id="WenQuanYiZenHei-b7" d="M 1100 1963 
Q 1100 1750 900 1663 
Q 831 1631 763 1631 
Q 550 1631 463 1831 
Q 438 1894 438 1963 
Q 438 2181 638 2256 
Q 706 2288 769 2288 
Q 969 2288 1063 2106 
Q 1100 2044 1100 1963 
z
" transform="scale(0.015625)"/>
      <path id="WenQuanYiZenHei-5c0d" d="M 4244 1200 
Q 3894 1744 3481 2238 
L 3825 2531 
Q 4263 2013 4625 1438 
L 4244 1200 
z
M 4819 138 
L 4819 3250 
L 3875 3250 
Q 3600 3250 3319 3238 
Q 3338 3388 3319 3538 
Q 3600 3525 3875 3525 
L 4819 3525 
L 4819 4413 
Q 4819 4825 4800 5244 
Q 5025 5219 5250 5244 
Q 5225 4825 5225 4413 
L 5225 3525 
L 5581 3525 
Q 5856 3525 6131 3538 
Q 6119 3388 6131 3238 
Q 5856 3250 5581 3250 
L 5225 3250 
L 5225 -50 
Q 5225 -481 5000 -638 
Q 4750 -800 4169 -794 
Q 4231 -513 4031 -300 
Q 4213 -319 4447 -322 
Q 4681 -325 4750 -265 
Q 4819 -206 4819 138 
z
M 1563 913 
L 1031 913 
Q 756 913 475 900 
Q 494 1050 475 1200 
Q 756 1181 1031 1181 
L 1563 1181 
L 1563 1994 
L 894 1994 
Q 613 1994 338 1981 
Q 356 2131 338 2281 
L 1094 2263 
L 588 3113 
L 975 3344 
L 1531 2406 
L 1300 2263 
L 1825 2263 
Q 2175 2725 2425 3350 
Q 2625 3250 2844 3188 
Q 2688 2756 2331 2263 
L 3181 2281 
Q 3163 2131 3181 1981 
Q 2906 1994 2625 1994 
L 2125 1994 
L 2094 1950 
Q 2075 1975 2056 1994 
L 1975 1994 
L 1975 1181 
L 2519 1181 
Q 2794 1181 3075 1200 
Q 3056 1050 3075 900 
Q 2794 913 2519 913 
L 1975 913 
L 1975 -25 
Q 2431 38 3363 181 
L 3338 -63 
Q 1319 -406 206 -656 
Q 238 -388 119 -150 
Q 813 -144 1563 -69 
L 1563 913 
z
M 3275 3713 
Q 3256 3563 3275 3413 
Q 3000 3425 2719 3425 
L 719 3425 
Q 444 3425 169 3413 
Q 181 3563 169 3713 
Q 444 3694 719 3694 
L 163 4725 
L 563 4938 
L 1119 3906 
L 731 3694 
L 1138 3694 
L 1138 4425 
Q 1138 4844 1113 5256 
Q 1338 5231 1563 5256 
Q 1544 4844 1544 4425 
L 1544 3694 
L 1913 3694 
L 1913 4425 
Q 1913 4844 1894 5256 
Q 2119 5231 2344 5256 
Q 2325 4844 2325 4425 
L 2325 3900 
Q 2631 4369 2875 4988 
Q 3075 4888 3294 4825 
Q 3094 4288 2675 3694 
L 3275 3713 
z
M 2325 3694 
L 2631 3694 
Q 2494 3813 2325 3850 
L 2325 3694 
z
" transform="scale(0.015625)"/>
      <path id="WenQuanYiZenHei-5916" d="M 4519 163 
Q 4519 -306 4538 -769 
Q 4288 -744 4038 -769 
Q 4056 -306 4056 163 
L 4056 4169 
Q 4056 4631 4038 5100 
Q 4288 5069 4538 5100 
Q 4519 4631 4519 4169 
L 4519 3269 
L 5375 2625 
L 6288 1875 
L 5963 1488 
L 5063 2225 
L 4519 2638 
L 4519 163 
z
M 1644 5119 
Q 1906 5038 2188 5019 
Q 2025 4394 1813 3838 
L 3525 3838 
Q 3369 2413 2591 1228 
Q 1813 44 600 -669 
Q 406 -475 156 -350 
Q 1556 375 2356 1713 
L 2094 1513 
Q 1681 2056 1219 2556 
Q 900 2000 506 1550 
Q 319 1763 38 1825 
Q 994 2875 1313 3813 
Q 1513 4438 1644 5119 
z
M 2450 1881 
Q 2856 2625 3013 3463 
L 1663 3463 
Q 1569 3238 1463 3025 
Q 1994 2481 2450 1881 
z
" transform="scale(0.015625)"/>
     </defs>
     <use xlink:href="#WenQuanYiZenHei-50"/>
     <use xlink:href="#WenQuanYiZenHei-6f" transform="translate(55.957031 0)"/>
     <use xlink:href="#WenQuanYiZenHei-72" transform="translate(109.863281 0)"/>
     <use xlink:href="#WenQuanYiZenHei-74" transform="translate(141.796875 0)"/>
     <use xlink:href="#WenQuanYiZenHei-20" transform="translate(173.730469 0)"/>
     <use xlink:href="#WenQuanYiZenHei-37" transform="translate(203.710938 0)"/>
     <use xlink:href="#WenQuanYiZenHei-38" transform="translate(263.671875 0)"/>
     <use xlink:href="#WenQuanYiZenHei-36" transform="translate(323.632812 0)"/>
     <use xlink:href="#WenQuanYiZenHei-30" transform="translate(383.59375 0)"/>
     <use xlink:href="#WenQuanYiZenHei-20" transform="translate(443.554688 0)"/>
     <use xlink:href="#WenQuanYiZenHei-20" transform="translate(473.535156 0)"/>
     <use xlink:href="#WenQuanYiZenHei-b7" transform="translate(503.515625 0)"/>
     <use xlink:href="#WenQuanYiZenHei-20" transform="translate(527.441406 0)"/>
     <use xlink:href="#WenQuanYiZenHei-20" transform="translate(557.421875 0)"/>
     <use xlink:href="#WenQuanYiZenHei-5c0d" transform="translate(587.402344 0)"/>
     <use xlink:href="#WenQuanYiZenHei-5916" transform="translate(687.402344 0)"/>
    </g>
   </g>
   <g id="text_5">
    <!-- 主執行緒 -->
    <g style="fill: #8e44ad; opacity: 0.85" transform="translate(1556.0125 495.040625) scale(0.28 -0.28)">
     <defs>
      <path id="WenQuanYiZenHei-4e3b" d="M 6138 44 
Q 6113 -163 6138 -369 
Q 5756 -350 5375 -350 
L 875 -350 
Q 494 -350 113 -369 
Q 138 -163 113 44 
Q 494 25 875 25 
L 2863 25 
L 2863 1806 
L 1613 1806 
Q 1231 1806 850 1788 
Q 875 1994 850 2200 
Q 1231 2181 1613 2181 
L 2863 2181 
L 2863 3606 
L 1238 3606 
Q 856 3606 475 3588 
Q 500 3794 475 4000 
Q 856 3981 1238 3981 
L 5063 3981 
Q 5444 3981 5819 4000 
Q 5800 3794 5819 3588 
Q 5444 3606 5063 3606 
L 3319 3606 
L 3319 2181 
L 4606 2181 
Q 4988 2181 5369 2200 
Q 5344 1994 5369 1788 
Q 4988 1806 4606 1806 
L 3319 1806 
L 3319 25 
L 5375 25 
Q 5756 25 6138 44 
z
M 3269 4038 
Q 2769 4588 2206 5063 
L 2531 5450 
Q 3125 4950 3644 4375 
L 3269 4038 
z
" transform="scale(0.015625)"/>
      <path id="WenQuanYiZenHei-57f7" d="M 3775 3444 
L 3488 3444 
Q 3188 3444 2881 3425 
Q 2900 3588 2881 3756 
Q 3188 3738 3488 3738 
L 3775 3738 
L 3775 4388 
Q 3775 4813 3756 5244 
Q 3988 5219 4225 5244 
Q 4200 4813 4200 4388 
L 4200 3738 
L 5269 3738 
L 5206 2138 
Q 5206 1156 5269 788 
Q 5356 275 5644 -63 
Q 5644 381 5619 819 
Q 5856 794 6088 819 
Q 6050 144 6069 -531 
Q 6069 -619 6006 -681 
Q 5906 -775 5775 -725 
Q 5750 -725 5719 -719 
Q 5288 -394 5041 93 
Q 4794 581 4806 1119 
L 4844 2138 
L 4844 3444 
L 4200 3444 
L 4200 2156 
Q 4200 2000 4194 1856 
L 4613 1313 
L 4238 1031 
L 4094 1219 
Q 3775 -31 2775 -606 
Q 2650 -363 2388 -294 
Q 3538 206 3750 1663 
L 3019 2513 
L 3363 2825 
L 3775 2344 
L 3775 3444 
z
M 1663 -769 
Q 1431 -744 1200 -769 
Q 1219 -338 1219 94 
L 1219 850 
L 719 850 
Q 419 850 113 831 
Q 131 994 113 1163 
Q 419 1144 719 1144 
L 1219 1144 
L 1219 1844 
L 913 1844 
Q 613 1844 313 1831 
Q 331 1994 313 2156 
Q 550 2144 788 2144 
L 381 2913 
L 794 3125 
L 1306 2163 
L 1275 2144 
L 1531 2144 
Q 1825 2550 2119 3144 
Q 2313 3025 2538 2944 
Q 2381 2600 2044 2144 
L 2688 2156 
Q 2675 1994 2688 1831 
L 1831 1844 
L 1800 1806 
Q 1788 1825 1769 1844 
L 1644 1844 
L 1644 1144 
L 2219 1144 
Q 2525 1144 2825 1163 
Q 2806 994 2825 831 
Q 2525 850 2219 850 
L 1644 850 
L 1644 94 
Q 1644 -338 1663 -769 
z
M 2838 3563 
Q 2825 3400 2838 3238 
Q 2538 3250 2238 3250 
L 750 3250 
Q 450 3250 144 3238 
Q 163 3400 144 3563 
Q 450 3550 750 3550 
L 1269 3550 
L 1269 4175 
L 913 4175 
Q 613 4175 313 4156 
Q 331 4325 313 4488 
Q 613 4469 913 4469 
L 1269 4469 
Q 1263 4863 1244 5256 
Q 1475 5231 1713 5256 
Q 1694 4863 1688 4469 
L 2038 4469 
Q 2344 4469 2644 4488 
Q 2625 4325 2644 4156 
Q 2344 4175 2038 4175 
L 1688 4175 
L 1688 3550 
L 2238 3550 
Q 2538 3550 2838 3563 
z
" transform="scale(0.015625)"/>
      <path id="WenQuanYiZenHei-884c" d="M 4413 -6 
L 4413 2606 
L 3263 2606 
Q 2900 2606 2538 2588 
Q 2556 2788 2538 2981 
Q 2900 2963 3263 2963 
L 5456 2963 
Q 5819 2963 6188 2981 
Q 6163 2788 6188 2588 
Q 5819 2606 5456 2606 
L 4863 2606 
L 4863 -163 
Q 4863 -431 4675 -606 
Q 4413 -844 3694 -838 
Q 3769 -519 3544 -288 
Q 3750 -313 4025 -313 
Q 4300 -313 4356 -272 
Q 4413 -231 4413 -6 
z
M 5825 4675 
Q 5800 4475 5825 4281 
Q 5463 4294 5094 4294 
L 3656 4294 
Q 3294 4294 2925 4281 
Q 2950 4475 2925 4675 
Q 3294 4656 3656 4656 
L 5094 4656 
Q 5463 4656 5825 4675 
z
M 1944 3663 
Q 2156 3519 2400 3419 
Q 2069 2919 1663 2469 
L 1663 13 
Q 1663 -419 1688 -850 
Q 1419 -825 1150 -850 
Q 1175 -419 1175 13 
L 1175 1956 
L 438 1263 
Q 294 1438 38 1513 
Q 788 2144 1431 2981 
L 1944 3663 
z
M 1750 5094 
Q 1963 4969 2219 4875 
Q 1763 4119 1019 3525 
Q 769 3325 506 3138 
Q 375 3331 144 3425 
Q 794 3850 1300 4488 
Q 1538 4788 1750 5094 
z
" transform="scale(0.015625)"/>
      <path id="WenQuanYiZenHei-7dd2" d="M 3738 -769 
Q 3513 -744 3288 -769 
Q 3306 -356 3306 63 
L 3306 1213 
Q 2963 894 2606 631 
Q 2481 856 2250 963 
Q 2831 1369 3306 1825 
L 3306 1863 
L 3344 1863 
Q 3719 2225 4000 2588 
L 2969 2588 
Q 2694 2588 2419 2569 
Q 2431 2719 2419 2869 
Q 2694 2856 2969 2856 
L 3650 2856 
L 3650 3844 
L 3225 3844 
Q 2944 3844 2669 3831 
Q 2688 3981 2669 4131 
Q 2944 4119 3225 4119 
L 3650 4119 
L 3625 5031 
Q 3850 5013 4075 5031 
L 4056 4119 
L 4875 4119 
Q 5050 4475 5144 4719 
Q 5369 4606 5606 4538 
Q 5219 3656 4688 2856 
L 5631 2856 
Q 5906 2856 6181 2869 
Q 6169 2719 6181 2569 
Q 5906 2588 5631 2588 
L 4500 2588 
Q 4225 2200 3931 1863 
L 5650 1863 
L 5650 -756 
L 5244 -756 
L 5244 -425 
L 3725 -425 
Q 3725 -600 3738 -769 
z
M 5244 844 
L 5244 1588 
L 3719 1588 
L 3713 844 
L 5244 844 
z
M 5244 594 
L 3713 594 
L 3719 -175 
L 5244 -175 
L 5244 594 
z
M 4056 3844 
L 4056 2856 
L 4200 2856 
Q 4431 3206 4744 3844 
L 4056 3844 
z
M 2350 113 
L 1925 -31 
L 1575 994 
L 2006 1138 
L 2350 113 
z
M 1556 -231 
L 1119 -338 
L 863 706 
L 1300 813 
L 1556 -231 
z
M 413 -650 
L -25 -531 
L 294 588 
L 725 469 
L 413 -650 
z
M 1850 3756 
Q 2050 3619 2288 3525 
Q 2050 3106 1463 2369 
Q 950 1706 769 1494 
L 1719 1706 
L 1450 2131 
L 1831 2369 
L 2469 1369 
L 2081 1131 
L 1863 1481 
L 1706 1456 
L 138 1069 
L 75 1331 
Q 194 1381 275 1469 
Q 719 1963 1275 2775 
L 163 2744 
L 163 3013 
Q 256 3025 319 3100 
Q 800 3850 1156 4731 
Q 1194 4844 1213 4956 
Q 1431 4850 1681 4788 
Q 1538 4425 1150 3788 
Q 813 3206 694 3019 
L 1444 3025 
Q 1706 3406 1850 3756 
z
" transform="scale(0.015625)"/>
     </defs>
     <use xlink:href="#WenQuanYiZenHei-4e3b"/>
     <use xlink:href="#WenQuanYiZenHei-57f7" transform="translate(100 0)"/>
     <use xlink:href="#WenQuanYiZenHei-884c" transform="translate(200 0)"/>
     <use xlink:href="#WenQuanYiZenHei-7dd2" transform="translate(300 0)"/>
    </g>
   </g>
   <g id="text_6">
    <!-- Gradio Internal API -->
    <g style="fill: #c0392b" transform="translate(1433.644063 617.903687) scale(0.44 -0.44)">
     <defs>
      <path id="WenQuanYiZenHei-49" d="M 1100 0 
L 550 0 
L 550 4388 
L 1100 4388 
L 1100 0 
z
" transform="scale(0.015625)"/>
      <path id="WenQuanYiZenHei-6c" d="M 1019 0 
L 519 0 
L 519 4388 
L 1019 4388 
L 1019 0 
z
" transform="scale(0.015625)"/>
      <path id="WenQuanYiZenHei-41" d="M 3550 0 
L 2988 0 
L 2550 1281 
L 919 1281 
L 531 0 
L 69 0 
L 1494 4388 
L 2125 4388 
L 3550 0 
z
M 2425 1694 
L 1756 3800 
L 1075 1694 
L 2425 1694 
z
" transform="scale(0.015625)"/>
     </defs>
     <use xlink:href="#WenQuanYiZenHei-47"/>
     <use xlink:href="#WenQuanYiZenHei-72" transform="translate(65.917969 0)"/>
     <use xlink:href="#WenQuanYiZenHei-61" transform="translate(97.851562 0)"/>
     <use xlink:href="#WenQuanYiZenHei-64" transform="translate(151.757812 0)"/>
     <use xlink:href="#WenQuanYiZenHei-69" transform="translate(205.664062 0)"/>
     <use xlink:href="#WenQuanYiZenHei-6f" transform="translate(229.589844 0)"/>
     <use xlink:href="#WenQuanYiZenHei-20" transform="translate(283.496094 0)"/>
     <use xlink:href="#WenQuanYiZenHei-49" transform="translate(313.476562 0)"/>
     <use xlink:href="#WenQuanYiZenHei-6e" transform="translate(339.453125 0)"/>
     <use xlink:href="#WenQuanYiZenHei-74" transform="translate(393.359375 0)"/>
     <use xlink:href="#WenQuanYiZenHei-65" transform="translate(425.292969 0)"/>
     <use xlink:href="#WenQuanYiZenHei-72" transform="translate(479.199219 0)"/>
     <use xlink:href="#WenQuanYiZenHei-6e" transform="translate(511.132812 0)"/>
     <use xlink:href="#WenQuanYiZenHei-61" transform="translate(565.039062 0)"/>
     <use xlink:href="#WenQuanYiZenHei-6c" transform="translate(618.945312 0)"/>
     <use xlink:href="#WenQuanYiZenHei-20" transform="translate(642.871094 0)"/>
     <use xlink:href="#WenQuanYiZenHei-41" transform="translate(672.851562 0)"/>
     <use xlink:href="#WenQuanYiZenHei-50" transform="translate(728.808594 0)"/>
     <use xlink:href="#WenQuanYiZenHei-49" transform="translate(784.765625 0)"/>
    </g>
   </g>
   <g id="text_7">
    <!-- Port 7862  ·  內部 -->
    <g style="fill: #c0392b" transform="translate(1470.270938 696.101625) scale(0.36 -0.36)">
     <defs>
      <path id="WenQuanYiZenHei-32" d="M 3488 0 
L 369 0 
L 369 456 
L 2150 1850 
Q 2931 2463 2931 3144 
Q 2931 3619 2488 3863 
Q 2231 4013 1931 4013 
Q 1425 4013 1113 3619 
Q 894 3356 881 3013 
L 369 3169 
Q 531 3981 1213 4300 
Q 1544 4456 1950 4456 
Q 2631 4456 3088 4044 
L 3225 3888 
L 3350 3706 
Q 3481 3444 3481 3144 
Q 3481 2313 2519 1569 
L 1069 456 
L 3488 456 
L 3488 0 
z
" transform="scale(0.015625)"/>
      <path id="WenQuanYiZenHei-5167" d="M 3450 3444 
Q 3913 1788 5169 881 
Q 4881 825 4700 594 
Q 3700 1431 3206 2656 
Q 2663 1206 1506 381 
Q 1369 638 1113 763 
Q 1494 1019 1825 1338 
Q 2369 1869 2606 2431 
Q 2806 2938 2938 3481 
L 1025 3481 
L 1031 194 
Q 1031 -275 1056 -750 
Q 800 -725 544 -750 
Q 563 -275 563 194 
L 563 3875 
L 2888 3875 
Q 2825 4306 2712 4534 
Q 2600 4763 2375 4906 
L 2625 5300 
Q 3213 4925 3325 4050 
L 3356 3875 
L 5744 3875 
L 5744 -88 
Q 5744 -394 5550 -581 
Q 5419 -713 5194 -769 
Q 4944 -825 4544 -819 
Q 4619 -494 4388 -250 
Q 4594 -275 4869 -278 
Q 5144 -281 5213 -238 
Q 5281 -138 5281 113 
L 5281 3481 
L 3463 3481 
L 3450 3444 
z
" transform="scale(0.015625)"/>
      <path id="WenQuanYiZenHei-90e8" d="M 1169 -763 
Q 931 -738 700 -763 
Q 719 -331 719 106 
L 719 1925 
L 3125 1925 
L 3125 -750 
L 2694 -750 
L 2694 -38 
L 1150 -38 
Q 1150 -400 1169 -763 
z
M 3763 2806 
Q 3744 2638 3763 2469 
Q 3450 2481 3138 2481 
L 694 2481 
Q 381 2481 69 2469 
Q 88 2638 69 2806 
Q 381 2788 694 2788 
L 1150 2788 
Q 875 3388 531 3950 
L 931 4200 
Q 1313 3575 1613 2906 
L 1350 2788 
L 2006 2788 
Q 2475 3350 2681 4288 
L 831 4288 
Q 519 4288 206 4275 
Q 225 4444 206 4613 
Q 519 4594 831 4594 
L 1688 4594 
L 1256 5094 
L 1613 5400 
L 2169 4756 
L 1988 4594 
L 3013 4594 
Q 3325 4594 3638 4613 
Q 3619 4444 3638 4275 
Q 3388 4281 3138 4288 
Q 3056 3538 2538 2788 
L 3138 2788 
Q 3450 2788 3763 2806 
z
M 2694 1619 
L 1150 1619 
L 1150 275 
L 2694 275 
L 2694 1619 
z
M 4431 -856 
Q 4225 -831 4019 -856 
Q 4038 -394 4038 75 
L 4038 4819 
L 5856 4819 
L 5856 4438 
Q 5763 4313 5713 4156 
L 5238 2756 
Q 5600 2450 5806 1972 
Q 6013 1494 6013 947 
Q 6013 400 5325 56 
L 5081 -56 
Q 4994 188 4869 388 
L 5263 531 
Q 5650 669 5650 950 
Q 5650 1494 5428 1969 
Q 5206 2444 4819 2719 
L 5400 4438 
L 4413 4438 
L 4413 75 
Q 4413 -388 4431 -856 
z
" transform="scale(0.015625)"/>
     </defs>
     <use xlink:href="#WenQuanYiZenHei-50"/>
     <use xlink:href="#WenQuanYiZenHei-6f" transform="translate(55.957031 0)"/>
     <use xlink:href="#WenQuanYiZenHei-72" transform="translate(109.863281 0)"/>
     <use xlink:href="#WenQuanYiZenHei-74" transform="translate(141.796875 0)"/>
     <use xlink:href="#WenQuanYiZenHei-20" transform="translate(173.730469 0)"/>
     <use xlink:href="#WenQuanYiZenHei-37" transform="translate(203.710938 0)"/>
     <use xlink:href="#WenQuanYiZenHei-38" transform="translate(263.671875 0)"/>
     <use xlink:href="#WenQuanYiZenHei-36" transform="translate(323.632812 0)"/>
     <use xlink:href="#WenQuanYiZenHei-32" transform="translate(383.59375 0)"/>
     <use xlink:href="#WenQuanYiZenHei-20" transform="translate(443.554688 0)"/>
     <use xlink:href="#WenQuanYiZenHei-20" transform="translate(473.535156 0)"/>
     <use xlink:href="#WenQuanYiZenHei-b7" transform="translate(503.515625 0)"/>
     <use xlink:href="#WenQuanYiZenHei-20" transform="translate(527.441406 0)"/>
     <use xlink:href="#WenQuanYiZenHei-20" transform="translate(557.421875 0)"/>
     <use xlink:href="#WenQuanYiZenHei-5167" transform="translate(587.402344 0)"/>
     <use xlink:href="#WenQuanYiZenHei-90e8" transform="translate(687.402344 0)"/>
    </g>
   </g>
   <g id="text_8">
    <!-- daemon thread -->
    <g style="fill: #c0392b; opacity: 0.85" transform="translate(1519.479063 762.679437) scale(0.28 -0.28)">
     <defs>
      <path id="WenQuanYiZenHei-68" d="M 3006 0 
L 2506 0 
L 2506 1894 
Q 2506 2538 2313 2750 
L 2206 2844 
L 2063 2900 
Q 1969 2925 1856 2925 
Q 1488 2925 1194 2581 
Q 956 2231 950 1669 
L 950 0 
L 450 0 
L 450 4388 
L 950 4388 
L 950 2650 
L 969 2650 
Q 1288 3338 1975 3338 
Q 2706 3338 2931 2650 
Q 3006 2413 3006 2119 
L 3006 0 
z
" transform="scale(0.015625)"/>
     </defs>
     <use xlink:href="#WenQuanYiZenHei-64"/>
     <use xlink:href="#WenQuanYiZenHei-61" transform="translate(53.90625 0)"/>
     <use xlink:href="#WenQuanYiZenHei-65" transform="translate(107.8125 0)"/>
     <use xlink:href="#WenQuanYiZenHei-6d" transform="translate(161.71875 0)"/>
     <use xlink:href="#WenQuanYiZenHei-6f" transform="translate(243.652344 0)"/>
     <use xlink:href="#WenQuanYiZenHei-6e" transform="translate(297.558594 0)"/>
     <use xlink:href="#WenQuanYiZenHei-20" transform="translate(351.464844 0)"/>
     <use xlink:href="#WenQuanYiZenHei-74" transform="translate(381.445312 0)"/>
     <use xlink:href="#WenQuanYiZenHei-68" transform="translate(413.378906 0)"/>
     <use xlink:href="#WenQuanYiZenHei-72" transform="translate(467.285156 0)"/>
     <use xlink:href="#WenQuanYiZenHei-65" transform="translate(499.21875 0)"/>
     <use xlink:href="#WenQuanYiZenHei-61" transform="translate(553.125 0)"/>
     <use xlink:href="#WenQuanYiZenHei-64" transform="translate(607.03125 0)"/>
    </g>
   </g>
   <g id="text_9">
    <!-- FastAPI 對話介面 -->
    <g transform="translate(483.3275 632.792587) scale(0.44 -0.44)">
     <defs>
      <path id="WenQuanYiZenHei-46" d="M 3213 3919 
L 1075 3919 
L 1075 2519 
L 2850 2519 
L 2850 2081 
L 1075 2081 
L 1075 0 
L 525 0 
L 525 4388 
L 3213 4388 
L 3213 3919 
z
" transform="scale(0.015625)"/>
      <path id="WenQuanYiZenHei-8a71" d="M 4169 4450 
L 2994 4319 
L 2769 4725 
Q 2988 4719 3181 4694 
Q 3500 4675 4344 4797 
Q 5188 4919 5756 5081 
Q 5763 4850 5825 4631 
L 4581 4500 
L 4581 3056 
L 5619 3056 
Q 5900 3056 6188 3069 
Q 6169 2919 6188 2763 
Q 5900 2775 5619 2775 
L 4581 2775 
L 4581 1569 
L 5775 1569 
L 5775 -756 
L 5363 -756 
L 5363 -275 
L 3413 -275 
Q 3419 -525 3431 -769 
Q 3206 -744 2975 -769 
Q 3000 -350 3000 69 
L 3000 1569 
L 4169 1569 
L 4169 2775 
L 3225 2775 
Q 2938 2775 2656 2763 
Q 2669 2919 2656 3069 
Q 2938 3056 3225 3056 
L 4169 3056 
L 4169 4450 
z
M 5363 1288 
L 3413 1288 
L 3413 -19 
L 5363 -19 
L 5363 1288 
z
M 644 -844 
Q 400 -819 163 -844 
Q 188 -431 188 -13 
L 188 1413 
L 2231 1413 
L 2231 -831 
L 1800 -831 
L 1800 -300 
L 625 -300 
Q 625 -569 644 -844 
z
M 2156 2444 
Q 2138 2294 2156 2144 
Q 1863 2156 1569 2156 
L 863 2156 
Q 575 2156 281 2144 
Q 300 2294 281 2444 
Q 575 2431 863 2431 
L 1569 2431 
Q 1863 2431 2156 2444 
z
M 2169 3394 
Q 2156 3244 2169 3094 
Q 1881 3106 1588 3106 
L 850 3106 
Q 556 3106 263 3094 
Q 281 3244 263 3394 
Q 556 3381 850 3381 
L 1588 3381 
Q 1881 3381 2169 3394 
z
M 2413 4356 
Q 2400 4206 2413 4056 
Q 2125 4075 1831 4075 
L 669 4075 
Q 375 4075 88 4056 
Q 100 4206 88 4356 
Q 375 4344 669 4344 
L 1831 4344 
Q 2125 4344 2413 4356 
z
M 1625 4731 
L 1331 4369 
L 538 4944 
L 825 5306 
L 1625 4731 
z
M 1800 1144 
L 619 1144 
L 619 -50 
L 1800 -50 
L 1800 1144 
z
" transform="scale(0.015625)"/>
      <path id="WenQuanYiZenHei-4ecb" d="M 4306 -825 
Q 4056 -800 3800 -825 
Q 3819 -350 3819 119 
L 3819 1675 
Q 3819 2144 3800 2619 
Q 4056 2588 4306 2619 
Q 4288 2144 4288 1675 
L 4288 119 
Q 4288 -350 4306 -825 
z
M 1863 2619 
Q 2144 2588 2425 2619 
Q 2475 2050 2409 1612 
Q 2344 1175 2266 869 
Q 2188 563 2038 269 
Q 1888 -25 1706 -263 
Q 1319 -763 656 -969 
Q 475 -669 150 -531 
Q 725 -475 1165 -106 
Q 1606 263 1828 1031 
Q 2050 1800 1863 2619 
z
M 3038 5169 
Q 3269 5038 3531 4950 
L 3381 4681 
Q 3588 4400 3881 4063 
Q 4431 3419 5225 3006 
Q 5663 2769 6131 2600 
Q 5906 2475 5806 2225 
Q 4913 2569 4225 3181 
Q 3594 3731 3144 4319 
Q 2419 3256 1438 2544 
Q 963 2206 419 1969 
Q 331 2238 113 2394 
Q 656 2619 1150 2931 
Q 1950 3438 2369 4025 
Q 2738 4563 3038 5169 
z
" transform="scale(0.015625)"/>
     </defs>
     <use xlink:href="#WenQuanYiZenHei-46"/>
     <use xlink:href="#WenQuanYiZenHei-61" transform="translate(47.949219 0)"/>
     <use xlink:href="#WenQuanYiZenHei-73" transform="translate(101.855469 0)"/>
     <use xlink:href="#WenQuanYiZenHei-74" transform="translate(153.808594 0)"/>
     <use xlink:href="#WenQuanYiZenHei-41" transform="translate(185.742188 0)"/>
     <use xlink:href="#WenQuanYiZenHei-50" transform="translate(241.699219 0)"/>
     <use xlink:href="#WenQuanYiZenHei-49" transform="translate(297.65625 0)"/>
     <use xlink:href="#WenQuanYiZenHei-20" transform="translate(323.632812 0)"/>
     <use xlink:href="#WenQuanYiZenHei-5c0d" transform="translate(353.613281 0)"/>
     <use xlink:href="#WenQuanYiZenHei-8a71" transform="translate(453.613281 0)"/>
     <use xlink:href="#WenQuanYiZenHei-4ecb" transform="translate(553.613281 0)"/>
     <use xlink:href="#WenQuanYiZenHei-9762" transform="translate(653.613281 0)"/>
    </g>
   </g>
   <g id="text_10">
    <!-- Port 7861  ·  對外 -->
    <g style="fill: #16a085" transform="translate(507.383438 707.595525) scale(0.36 -0.36)">
     <defs>
      <path id="WenQuanYiZenHei-31" d="M 3556 0 
L 488 0 
L 488 406 
L 1800 406 
L 1800 3725 
Q 1231 3125 588 2788 
L 588 3338 
Q 1456 3781 1931 4388 
L 2331 4388 
L 2331 406 
L 3556 406 
L 3556 0 
z
" transform="scale(0.015625)"/>
     </defs>
     <use xlink:href="#WenQuanYiZenHei-50"/>
     <use xlink:href="#WenQuanYiZenHei-6f" transform="translate(55.957031 0)"/>
     <use xlink:href="#WenQuanYiZenHei-72" transform="translate(109.863281 0)"/>
     <use xlink:href="#WenQuanYiZenHei-74" transform="translate(141.796875 0)"/>
     <use xlink:href="#WenQuanYiZenHei-20" transform="translate(173.730469 0)"/>
     <use xlink:href="#WenQuanYiZenHei-37" transform="translate(203.710938 0)"/>
     <use xlink:href="#WenQuanYiZenHei-38" transform="translate(263.671875 0)"/>
     <use xlink:href="#WenQuanYiZenHei-36" transform="translate(323.632812 0)"/>
     <use xlink:href="#WenQuanYiZenHei-31" transform="translate(383.59375 0)"/>
     <use xlink:href="#WenQuanYiZenHei-20" transform="translate(443.554688 0)"/>
     <use xlink:href="#WenQuanYiZenHei-20" transform="translate(473.535156 0)"/>
     <use xlink:href="#WenQuanYiZenHei-b7" transform="translate(503.515625 0)"/>
     <use xlink:href="#WenQuanYiZenHei-20" transform="translate(527.441406 0)"/>
     <use xlink:href="#WenQuanYiZenHei-20" transform="translate(557.421875 0)"/>
     <use xlink:href="#WenQuanYiZenHei-5c0d" transform="translate(587.402344 0)"/>
     <use xlink:href="#WenQuanYiZenHei-5916" transform="translate(687.402344 0)"/>
    </g>
   </g>
   <g id="text_11">
    <!-- 獨立 process -->
    <g style="fill: #16a085; opacity: 0.85" transform="translate(568.555 777.0174) scale(0.28 -0.28)">
     <defs>
      <path id="WenQuanYiZenHei-7368" d="M 3575 1050 
L 2575 1050 
Q 2644 1638 2575 2219 
L 2263 1850 
Q 2125 2013 1919 2063 
L 2125 2294 
Q 2219 2413 2313 2538 
L 2969 3463 
L 2406 3463 
Q 2481 4138 2406 4813 
L 5869 4813 
Q 5794 4138 5856 3463 
L 3463 3463 
Q 3331 3219 3175 2988 
L 5956 2988 
L 5956 -181 
Q 5956 -531 5700 -663 
Q 5425 -806 4913 -800 
Q 4981 -519 4781 -313 
Q 4963 -331 5206 -334 
Q 5450 -338 5500 -294 
Q 5550 -250 5550 -19 
L 5550 2731 
L 2988 2731 
L 2588 2231 
L 3569 2231 
Q 3563 2413 3556 2594 
Q 3775 2575 3994 2594 
Q 3988 2413 3981 2231 
L 4994 2231 
Q 4913 1644 4981 1050 
L 4825 1050 
L 5338 175 
L 4950 -50 
L 4675 431 
Q 3306 150 2469 -81 
Q 2488 181 2369 413 
Q 2950 413 3575 488 
L 3575 1050 
z
M 3975 1050 
L 3975 544 
Q 4219 581 4550 644 
L 4431 850 
L 4775 1050 
L 3975 1050 
z
M 3975 1975 
L 3975 1313 
L 4581 1313 
L 4588 1975 
L 3975 1975 
z
M 2975 1975 
L 2975 1313 
L 3575 1313 
L 3575 1975 
L 2975 1975 
z
M 4769 4556 
L 4769 3725 
L 5456 3725 
L 5469 4556 
L 4769 4556 
z
M 4369 4556 
L 3775 4556 
L 3775 3725 
L 4369 3725 
L 4369 4556 
z
M 3375 4556 
L 2806 4556 
L 2806 3725 
L 3375 3725 
L 3375 4556 
z
M 1944 4775 
Q 2088 4581 2256 4425 
Q 1950 4081 1631 3756 
L 1488 3613 
Q 1681 3163 1800 2563 
Q 2088 1113 1775 69 
Q 1575 -731 869 -856 
Q 794 -575 544 -450 
Q 669 -444 844 -409 
Q 1019 -375 1150 -262 
Q 1281 -150 1394 175 
Q 1650 1056 1481 2100 
L 1281 1813 
L 750 1081 
L 431 619 
Q 294 775 75 831 
L 938 2113 
L 1369 2694 
Q 1294 3044 1194 3325 
L 344 2506 
Q 238 2706 38 2800 
L 588 3331 
L 988 3750 
Q 731 4175 250 4338 
Q 344 4550 406 4794 
Q 944 4556 1263 4038 
L 1944 4775 
z
" transform="scale(0.015625)"/>
      <path id="WenQuanYiZenHei-7acb" d="M 6138 44 
Q 6113 -163 6138 -369 
Q 5756 -350 5375 -350 
L 875 -350 
Q 494 -350 113 -369 
Q 138 -163 113 44 
Q 494 25 875 25 
L 3194 25 
L 3438 588 
Q 3675 1100 3897 1859 
Q 4119 2619 4269 3363 
Q 4531 3269 4806 3231 
L 4344 1738 
Q 3969 550 3769 25 
L 5375 25 
Q 5756 25 6138 44 
z
M 2144 544 
Q 1963 1863 1250 2988 
L 1675 3263 
Q 2450 2038 2644 606 
L 2144 544 
z
M 5756 4100 
Q 5738 3894 5756 3688 
Q 5375 3706 4994 3706 
L 1175 3706 
Q 794 3706 413 3688 
Q 438 3894 413 4100 
Q 794 4081 1175 4081 
L 4994 4081 
Q 5375 4081 5756 4100 
z
M 3163 4100 
Q 2794 4625 2350 5081 
L 2719 5431 
Q 3188 4944 3575 4394 
L 3163 4100 
z
" transform="scale(0.015625)"/>
     </defs>
     <use xlink:href="#WenQuanYiZenHei-7368"/>
     <use xlink:href="#WenQuanYiZenHei-7acb" transform="translate(100 0)"/>
     <use xlink:href="#WenQuanYiZenHei-20" transform="translate(200 0)"/>
     <use xlink:href="#WenQuanYiZenHei-70" transform="translate(229.980469 0)"/>
     <use xlink:href="#WenQuanYiZenHei-72" transform="translate(283.886719 0)"/>
     <use xlink:href="#WenQuanYiZenHei-6f" transform="translate(315.820312 0)"/>
     <use xlink:href="#WenQuanYiZenHei-63" transform="translate(369.726562 0)"/>
     <use xlink:href="#WenQuanYiZenHei-65" transform="translate(417.675781 0)"/>
     <use xlink:href="#WenQuanYiZenHei-73" transform="translate(471.582031 0)"/>
     <use xlink:href="#WenQuanYiZenHei-73" transform="translate(523.535156 0)"/>
    </g>
   </g>
   <g id="text_12">
    <!-- llama_cpp.server -->
    <g transform="translate(1449.00625 1007.963687) scale(0.44 -0.44)">
     <defs>
      <path id="WenQuanYiZenHei-5f" d="M 3200 -800 
L 0 -800 
L 0 -481 
L 3200 -481 
L 3200 -800 
z
" transform="scale(0.015625)"/>
      <path id="WenQuanYiZenHei-2e" d="M 1344 0 
L 631 0 
L 631 725 
L 1344 725 
L 1344 0 
z
" transform="scale(0.015625)"/>
      <path id="WenQuanYiZenHei-76" d="M 2831 3250 
L 1706 0 
L 1181 0 
L 25 3250 
L 581 3250 
L 1494 606 
L 2381 3250 
L 2831 3250 
z
" transform="scale(0.015625)"/>
     </defs>
     <use xlink:href="#WenQuanYiZenHei-6c"/>
     <use xlink:href="#WenQuanYiZenHei-6c" transform="translate(23.925781 0)"/>
     <use xlink:href="#WenQuanYiZenHei-61" transform="translate(47.851562 0)"/>
     <use xlink:href="#WenQuanYiZenHei-6d" transform="translate(101.757812 0)"/>
     <use xlink:href="#WenQuanYiZenHei-61" transform="translate(183.691406 0)"/>
     <use xlink:href="#WenQuanYiZenHei-5f" transform="translate(237.597656 0)"/>
     <use xlink:href="#WenQuanYiZenHei-63" transform="translate(287.597656 0)"/>
     <use xlink:href="#WenQuanYiZenHei-70" transform="translate(335.546875 0)"/>
     <use xlink:href="#WenQuanYiZenHei-70" transform="translate(389.453125 0)"/>
     <use xlink:href="#WenQuanYiZenHei-2e" transform="translate(443.359375 0)"/>
     <use xlink:href="#WenQuanYiZenHei-73" transform="translate(473.339844 0)"/>
     <use xlink:href="#WenQuanYiZenHei-65" transform="translate(525.292969 0)"/>
     <use xlink:href="#WenQuanYiZenHei-72" transform="translate(579.199219 0)"/>
     <use xlink:href="#WenQuanYiZenHei-76" transform="translate(611.132812 0)"/>
     <use xlink:href="#WenQuanYiZenHei-65" transform="translate(655.078125 0)"/>
     <use xlink:href="#WenQuanYiZenHei-72" transform="translate(708.984375 0)"/>
    </g>
   </g>
   <g id="text_13">
    <!-- Port 8080  ·  內部 -->
    <g style="fill: #555555" transform="translate(1470.270938 1086.161625) scale(0.36 -0.36)">
     <use xlink:href="#WenQuanYiZenHei-50"/>
     <use xlink:href="#WenQuanYiZenHei-6f" transform="translate(55.957031 0)"/>
     <use xlink:href="#WenQuanYiZenHei-72" transform="translate(109.863281 0)"/>
     <use xlink:href="#WenQuanYiZenHei-74" transform="translate(141.796875 0)"/>
     <use xlink:href="#WenQuanYiZenHei-20" transform="translate(173.730469 0)"/>
     <use xlink:href="#WenQuanYiZenHei-38" transform="translate(203.710938 0)"/>
     <use xlink:href="#WenQuanYiZenHei-30" transform="translate(263.671875 0)"/>
     <use xlink:href="#WenQuanYiZenHei-38" transform="translate(323.632812 0)"/>
     <use xlink:href="#WenQuanYiZenHei-30" transform="translate(383.59375 0)"/>
     <use xlink:href="#WenQuanYiZenHei-20" transform="translate(443.554688 0)"/>
     <use xlink:href="#WenQuanYiZenHei-20" transform="translate(473.535156 0)"/>
     <use xlink:href="#WenQuanYiZenHei-b7" transform="translate(503.515625 0)"/>
     <use xlink:href="#WenQuanYiZenHei-20" transform="translate(527.441406 0)"/>
     <use xlink:href="#WenQuanYiZenHei-20" transform="translate(557.421875 0)"/>
     <use xlink:href="#WenQuanYiZenHei-5167" transform="translate(587.402344 0)"/>
     <use xlink:href="#WenQuanYiZenHei-90e8" transform="translate(687.402344 0)"/>
    </g>
   </g>
   <g id="text_14">
    <!-- 獨立 process -->
    <g style="fill: #2980b9; opacity: 0.85" transform="translate(1531.4425 1155.021) scale(0.28 -0.28)">
     <use xlink:href="#WenQuanYiZenHei-7368"/>
     <use xlink:href="#WenQuanYiZenHei-7acb" transform="translate(100 0)"/>
     <use xlink:href="#WenQuanYiZenHei-20" transform="translate(200 0)"/>
     <use xlink:href="#WenQuanYiZenHei-70" transform="translate(229.980469 0)"/>
     <use xlink:href="#WenQuanYiZenHei-72" transform="translate(283.886719 0)"/>
     <use xlink:href="#WenQuanYiZenHei-6f" transform="translate(315.820312 0)"/>
     <use xlink:href="#WenQuanYiZenHei-63" transform="translate(369.726562 0)"/>
     <use xlink:href="#WenQuanYiZenHei-65" transform="translate(417.675781 0)"/>
     <use xlink:href="#WenQuanYiZenHei-73" transform="translate(471.582031 0)"/>
     <use xlink:href="#WenQuanYiZenHei-73" transform="translate(523.535156 0)"/>
    </g>
   </g>
   <g id="text_15">
    <!-- 終端 -->
    <g style="fill: #16a085" transform="translate(72.01875 661.74615) scale(0.6 -0.6)">
     <defs>
      <path id="WenQuanYiZenHei-7d42" d="M 4919 -794 
Q 4163 -169 3269 244 
L 3469 669 
Q 4413 225 5219 -431 
L 4919 -794 
z
M 4738 600 
Q 4169 988 3556 1300 
L 3769 1719 
Q 4406 1394 5000 981 
L 4738 600 
z
M 6119 2000 
Q 5944 1813 5938 1563 
Q 4988 1619 4250 2294 
Q 3594 1713 2738 1519 
Q 2625 1750 2438 1925 
Q 3294 2031 3950 2600 
Q 3588 3031 3344 3588 
Q 3106 3125 2800 2631 
Q 2631 2781 2406 2800 
Q 2738 3300 2969 3819 
Q 3200 4338 3456 5131 
Q 3675 5044 3900 5000 
Q 3794 4606 3650 4250 
L 5338 4250 
Q 5175 3294 4531 2569 
Q 4775 2375 5081 2231 
Q 5575 2013 6119 2000 
z
M 3606 3956 
Q 3850 3300 4225 2869 
Q 4650 3344 4831 3956 
L 3606 3956 
z
M 2413 113 
L 1969 -31 
L 1619 994 
L 2056 1138 
L 2413 113 
z
M 1600 -231 
L 1144 -338 
L 881 706 
L 1338 813 
L 1600 -231 
z
M 419 -650 
L -25 -531 
L 300 588 
L 744 469 
L 419 -650 
z
M 1894 3756 
Q 2100 3619 2344 3525 
Q 2100 3106 1494 2369 
Q 969 1706 788 1494 
L 1763 1706 
L 1488 2131 
L 1875 2369 
L 2525 1369 
L 2138 1131 
L 1906 1481 
L 1750 1456 
L 144 1069 
L 75 1331 
Q 194 1381 281 1469 
Q 738 1963 1306 2775 
L 169 2744 
L 163 3013 
Q 263 3025 325 3100 
Q 825 3850 1181 4731 
Q 1219 4844 1244 4956 
Q 1469 4850 1725 4788 
Q 1575 4425 1175 3788 
Q 831 3206 706 3019 
L 1475 3025 
Q 1750 3406 1894 3756 
z
" transform="scale(0.015625)"/>
      <path id="WenQuanYiZenHei-7aef" d="M 4938 -769 
Q 4713 -744 4488 -769 
Q 4506 -350 4506 63 
L 4506 1425 
L 4025 1425 
L 4025 63 
Q 4025 -350 4044 -769 
Q 3819 -744 3594 -769 
Q 3619 -350 3619 63 
L 3619 1425 
L 3069 1425 
L 3069 81 
Q 3069 -331 3088 -750 
Q 2863 -725 2638 -750 
Q 2656 -331 2656 81 
L 2656 1694 
L 3425 1694 
Q 3631 1931 3731 2113 
L 3906 2419 
L 3075 2419 
Q 2794 2419 2519 2406 
Q 2538 2556 2519 2706 
Q 2794 2694 3075 2694 
L 5563 2694 
Q 5838 2694 6113 2706 
Q 6100 2556 6113 2406 
Q 5838 2419 5563 2419 
L 4400 2419 
Q 4275 2119 3944 1694 
L 5919 1694 
L 5919 -231 
Q 5919 -388 5831 -506 
Q 5744 -625 5606 -688 
Q 5375 -794 5081 -794 
Q 5138 -500 4963 -263 
Q 5231 -344 5469 -300 
Q 5506 -275 5506 -138 
L 5506 1425 
L 4913 1425 
L 4913 63 
Q 4913 -350 4938 -769 
z
M 5794 3131 
Q 5569 3156 5344 3131 
Q 5350 3263 5356 3394 
L 2681 3394 
L 2681 4088 
Q 2681 4506 2663 4919 
Q 2888 4900 3113 4919 
Q 3094 4506 3094 4088 
L 3094 3669 
L 4050 3669 
L 4050 4425 
Q 4050 4844 4031 5256 
Q 4256 5231 4481 5256 
Q 4456 4844 4456 4425 
L 4456 3669 
L 5363 3669 
L 5369 4088 
Q 5369 4506 5344 4919 
Q 5569 4900 5794 4919 
Q 5775 4506 5775 4088 
L 5775 3963 
Q 5775 3550 5794 3131 
z
M 169 -19 
Q 150 281 6 488 
Q 369 500 806 565 
Q 1244 631 2256 913 
L 2263 656 
Q 1300 375 897 240 
Q 494 106 169 -19 
z
M 1669 3100 
Q 1888 3031 2144 3000 
Q 2050 2550 1890 1931 
Q 1731 1313 1700 1172 
Q 1669 1031 1625 788 
Q 1406 863 1175 800 
L 1456 2206 
Q 1556 2656 1669 3100 
z
M 1194 1175 
L 719 1069 
Q 600 1544 462 2009 
Q 325 2475 163 2938 
L 625 3081 
Q 788 2613 931 2134 
Q 1075 1656 1194 1175 
z
M 2425 3744 
Q 2413 3581 2425 3425 
Q 2119 3438 1806 3438 
L 663 3438 
Q 356 3438 44 3425 
Q 63 3581 44 3744 
Q 356 3731 663 3731 
L 1806 3731 
Q 2119 3731 2425 3744 
z
M 1213 3775 
Q 969 4344 650 4850 
L 1069 5088 
Q 1406 4550 1663 3950 
L 1213 3775 
z
" transform="scale(0.015625)"/>
     </defs>
     <use xlink:href="#WenQuanYiZenHei-7d42"/>
     <use xlink:href="#WenQuanYiZenHei-7aef" transform="translate(100 0)"/>
    </g>
   </g>
   <g id="text_16">
    <!-- 使用者 -->
    <g style="fill: #16a085" transform="translate(42.01875 740.550337) scale(0.6 -0.6)">
     <defs>
      <path id="WenQuanYiZenHei-4f7f" d="M 3400 488 
Q 3731 913 3719 1594 
L 2306 1594 
Q 2388 2438 2306 3281 
L 3719 3281 
L 3719 3875 
L 2788 3875 
Q 2450 3875 2119 3863 
Q 2138 4044 2119 4225 
Q 2450 4206 2788 4206 
L 3719 4206 
Q 3719 4644 3700 5075 
Q 3938 5050 4181 5075 
Q 4163 4644 4163 4206 
L 5213 4206 
Q 5550 4206 5881 4225 
Q 5863 4044 5881 3863 
Q 5550 3875 5213 3875 
L 4163 3875 
L 4163 3281 
L 5613 3281 
Q 5525 2438 5606 1594 
L 4163 1594 
Q 4181 1031 3956 575 
Q 3863 381 3738 213 
Q 4225 -150 4847 -319 
Q 5469 -488 6088 -456 
Q 5931 -669 5944 -931 
Q 4625 -963 3488 -94 
Q 2931 -650 2144 -831 
Q 2081 -550 1825 -413 
Q 2600 -338 3144 194 
Q 2731 569 2388 1019 
L 2706 1250 
Q 3050 806 3400 488 
z
M 3719 2950 
L 2750 2950 
L 2750 1925 
L 3719 1925 
L 3719 2950 
z
M 4163 2950 
L 4163 1925 
L 5163 1925 
L 5169 2950 
L 4163 2950 
z
M 2056 4925 
Q 1813 4075 1425 3338 
L 1425 31 
Q 1425 -413 1444 -850 
Q 1225 -825 1000 -850 
Q 1025 -413 1025 31 
L 1025 2681 
Q 731 2269 369 1931 
Q 231 2156 0 2256 
Q 319 2544 600 2875 
Q 1069 3425 1269 3950 
Q 1456 4469 1581 5050 
Q 1800 4963 2056 4925 
z
" transform="scale(0.015625)"/>
      <path id="WenQuanYiZenHei-7528" d="M 3556 -775 
Q 3306 -744 3050 -775 
Q 3075 -306 3075 156 
L 3075 1606 
L 1481 1606 
Q 1450 813 1234 250 
Q 1019 -313 625 -738 
Q 438 -519 156 -500 
Q 631 -100 828 472 
Q 1025 1044 1025 1856 
L 1013 4963 
L 5688 4963 
L 5688 150 
Q 5688 -294 5413 -456 
Q 5119 -625 4500 -619 
Q 4575 -300 4350 -63 
Q 4556 -88 4822 -91 
Q 5088 -94 5156 -38 
Q 5244 56 5231 394 
L 5231 1606 
L 3531 1606 
L 3531 156 
Q 3531 -306 3556 -775 
z
M 3531 1981 
L 5231 1981 
L 5231 3025 
L 3531 3025 
L 3531 1981 
z
M 3075 1981 
L 3075 3025 
L 1481 3025 
L 1481 1981 
L 3075 1981 
z
M 3531 3400 
L 5231 3400 
L 5231 4588 
L 3531 4588 
L 3531 3400 
z
M 3075 3400 
L 3075 4588 
L 1475 4581 
L 1475 3400 
L 3075 3400 
z
" transform="scale(0.015625)"/>
      <path id="WenQuanYiZenHei-8005" d="M 2469 -769 
Q 2225 -744 1981 -769 
Q 2006 -319 2006 125 
L 2006 1525 
Q 1219 1106 388 844 
Q 344 1113 144 1306 
Q 1131 1613 2006 2056 
L 2006 2088 
L 2063 2088 
Q 2644 2388 3119 2731 
L 1094 2731 
Q 756 2731 425 2713 
Q 444 2894 425 3075 
Q 756 3063 1094 3063 
L 2806 3063 
L 2806 3994 
L 1844 3994 
Q 1513 3994 1175 3981 
Q 1194 4163 1175 4344 
Q 1513 4325 1844 4325 
L 2806 4325 
L 2788 5256 
Q 3031 5231 3269 5256 
L 3250 4325 
L 4763 4325 
Q 5013 4619 5169 4819 
Q 5363 4631 5594 4494 
Q 4944 3713 4206 3063 
L 5463 3063 
Q 5800 3063 6138 3075 
Q 6119 2894 6138 2713 
Q 5800 2731 5463 2731 
L 3819 2731 
Q 3388 2381 2944 2088 
L 5094 2088 
L 5094 -756 
L 4650 -756 
L 4650 -263 
L 2450 -263 
Q 2456 -513 2469 -769 
z
M 4650 1081 
L 4650 1756 
L 2444 1756 
Q 2444 1425 2444 1081 
L 4650 1081 
z
M 4650 750 
L 2444 750 
L 2444 69 
L 4650 69 
L 4650 750 
z
M 3250 3994 
L 3250 3063 
L 3544 3063 
Q 3950 3413 4469 3994 
L 3250 3994 
z
" transform="scale(0.015625)"/>
     </defs>
     <use xlink:href="#WenQuanYiZenHei-4f7f"/>
     <use xlink:href="#WenQuanYiZenHei-7528" transform="translate(100 0)"/>
     <use xlink:href="#WenQuanYiZenHei-8005" transform="translate(200 0)"/>
    </g>
   </g>
   <g id="patch_8">
    <path d="M 223.176445 682.3584 
Q 328.162157 682.3584 426.439665 682.3584 
" style="fill: none; stroke: #16a085; stroke-width: 6; stroke-linecap: round"/>
    <path d="M 410.439665 674.3584 
L 426.439665 682.3584 
L 410.439665 690.3584 
z
" style="fill: #16a085; stroke: #16a085; stroke-width: 6; stroke-linecap: round"/>
   </g>
   <g id="text_17">
    <!-- 研究者 -->
    <g style="fill: #8e44ad" transform="translate(2074.78125 431.813963) scale(0.6 -0.6)">
     <use xlink:href="#WenQuanYiZenHei-7814"/>
     <use xlink:href="#WenQuanYiZenHei-7a76" transform="translate(100 0)"/>
     <use xlink:href="#WenQuanYiZenHei-8005" transform="translate(200 0)"/>
    </g>
   </g>
   <g id="patch_9">
    <path d="M 2073.623555 412.8624 
Q 1968.637843 412.8624 1870.360335 412.8624 
" style="fill: none; stroke: #8e44ad; stroke-width: 6; stroke-linecap: round"/>
    <path d="M 1886.360335 420.8624 
L 1870.360335 412.8624 
L 1886.360335 404.8624 
z
" style="fill: #8e44ad; stroke: #8e44ad; stroke-width: 6; stroke-linecap: round"/>
   </g>
   <g id="patch_10">
    <path d="M 865.099812 649.026 
Q 1112.737711 649.026 1353.667406 649.026 
" style="fill: none; stroke: #c0392b; stroke-width: 6; stroke-linecap: round"/>
    <path d="M 1337.667406 641.026 
L 1353.667406 649.026 
L 1337.667406 657.026 
z
" style="fill: #c0392b; stroke: #c0392b; stroke-width: 6; stroke-linecap: round"/>
   </g>
   <g id="text_18">
    <g id="patch_11">
     <path d="M 1020.290625 643.629375 
L 1205.184375 643.629375 
Q 1223.184375 643.629375 1223.184375 625.629375 
L 1223.184375 594.410625 
Q 1223.184375 576.410625 1205.184375 576.410625 
L 1020.290625 576.410625 
Q 1002.290625 576.410625 1002.290625 594.410625 
L 1002.290625 625.629375 
Q 1002.290625 643.629375 1020.290625 643.629375 
z
" style="fill: #ffffff; stroke: #c0392b; stroke-width: 2; stroke-linejoin: miter"/>
    </g>
    <!-- HTTP / SSE -->
    <g style="fill: #c0392b" transform="translate(1020.290625 619.475625) scale(0.36 -0.36)">
     <defs>
      <path id="WenQuanYiZenHei-48" d="M 3656 0 
L 3106 0 
L 3106 2088 
L 1069 2088 
L 1069 0 
L 519 0 
L 519 4388 
L 1069 4388 
L 1069 2569 
L 3106 2569 
L 3106 4388 
L 3656 4388 
L 3656 0 
z
" transform="scale(0.015625)"/>
      <path id="WenQuanYiZenHei-54" d="M 3119 3913 
L 1869 3913 
L 1869 0 
L 1319 0 
L 1319 3913 
L 69 3913 
L 69 4388 
L 3119 4388 
L 3119 3913 
z
" transform="scale(0.015625)"/>
      <path id="WenQuanYiZenHei-2f" d="M 3213 4388 
L 563 -1094 
L 138 -1094 
L 2775 4388 
L 3213 4388 
z
" transform="scale(0.015625)"/>
      <path id="WenQuanYiZenHei-53" d="M 3688 1256 
Q 3688 444 2931 106 
Q 2544 -63 2050 -63 
Q 700 -63 269 1181 
L 763 1294 
Q 963 613 1663 450 
Q 1850 406 2063 406 
Q 2700 406 2975 750 
Q 3119 925 3119 1181 
Q 3119 1631 2550 1850 
L 2144 1963 
Q 1406 2150 1338 2175 
Q 1013 2281 844 2431 
Q 488 2750 488 3244 
Q 488 3994 1181 4300 
Q 1538 4456 1975 4456 
Q 2881 4456 3338 3800 
L 3463 3569 
Q 3506 3481 3538 3381 
L 3038 3244 
Q 2956 3675 2488 3900 
Q 2238 4019 1963 4019 
Q 1506 4019 1219 3756 
Q 1025 3575 1025 3319 
Q 1025 2888 1563 2688 
Q 1694 2644 2394 2481 
Q 3019 2338 3275 2125 
Q 3688 1794 3688 1256 
z
" transform="scale(0.015625)"/>
      <path id="WenQuanYiZenHei-45" d="M 3388 0 
L 544 0 
L 544 4388 
L 3319 4388 
L 3319 3919 
L 1094 3919 
L 1094 2519 
L 2863 2519 
L 2863 2081 
L 1094 2081 
L 1094 475 
L 3388 475 
L 3388 0 
z
" transform="scale(0.015625)"/>
     </defs>
     <use xlink:href="#WenQuanYiZenHei-48"/>
     <use xlink:href="#WenQuanYiZenHei-54" transform="translate(65.917969 0)"/>
     <use xlink:href="#WenQuanYiZenHei-54" transform="translate(115.917969 0)"/>
     <use xlink:href="#WenQuanYiZenHei-50" transform="translate(165.917969 0)"/>
     <use xlink:href="#WenQuanYiZenHei-20" transform="translate(221.875 0)"/>
     <use xlink:href="#WenQuanYiZenHei-2f" transform="translate(251.855469 0)"/>
     <use xlink:href="#WenQuanYiZenHei-20" transform="translate(303.808594 0)"/>
     <use xlink:href="#WenQuanYiZenHei-53" transform="translate(333.789062 0)"/>
     <use xlink:href="#WenQuanYiZenHei-53" transform="translate(395.703125 0)"/>
     <use xlink:href="#WenQuanYiZenHei-45" transform="translate(457.617188 0)"/>
    </g>
   </g>
   <g id="patch_12">
    <path d="M 1612.0125 803.508148 
Q 1612.0125 872.425357 1612.0125 934.634361 
" style="fill: none; stroke: #2980b9; stroke-width: 6; stroke-linecap: round"/>
    <path d="M 1620.0125 918.634361 
L 1612.0125 934.634361 
L 1604.0125 918.634361 
z
" style="fill: #2980b9; stroke: #2980b9; stroke-width: 6; stroke-linecap: round"/>
   </g>
   <g id="text_19">
    <g id="patch_13">
     <path d="M 1704.735 904.278375 
L 1853.026875 904.278375 
Q 1867.426875 904.278375 1867.426875 889.878375 
L 1867.426875 854.969625 
Q 1867.426875 840.569625 1853.026875 840.569625 
L 1704.735 840.569625 
Q 1690.335 840.569625 1690.335 854.969625 
L 1690.335 889.878375 
Q 1690.335 904.278375 1704.735 904.278375 
z
" style="fill: #ffffff"/>
    </g>
    <!-- LLM 推論 -->
    <g style="fill: #2980b9" transform="translate(1704.735 883.899) scale(0.36 -0.36)">
     <defs>
      <path id="WenQuanYiZenHei-4c" d="M 3131 0 
L 538 0 
L 538 4388 
L 1088 4388 
L 1088 488 
L 3131 488 
L 3131 0 
z
" transform="scale(0.015625)"/>
      <path id="WenQuanYiZenHei-4d" d="M 4756 0 
L 4206 0 
L 4206 3831 
L 4181 3831 
L 2788 0 
L 2419 0 
L 1000 3831 
L 975 3831 
L 975 0 
L 513 0 
L 513 4388 
L 1331 4388 
L 2656 875 
L 3950 4388 
L 4756 4388 
L 4756 0 
z
" transform="scale(0.015625)"/>
      <path id="WenQuanYiZenHei-63a8" d="M 6169 19 
Q 6156 -144 6169 -306 
Q 5869 -294 5569 -294 
L 3306 -294 
Q 3313 -531 3325 -769 
Q 3094 -744 2856 -769 
Q 2881 -338 2881 94 
L 2881 2750 
Q 2688 2313 2444 1931 
Q 2244 2106 1975 2125 
Q 2650 3100 2838 3900 
Q 2975 4488 3019 5094 
Q 3275 5044 3531 5044 
Q 3419 4394 3256 3819 
L 5400 3819 
Q 5706 3819 6006 3838 
Q 5988 3675 6006 3506 
Q 5706 3525 5400 3525 
L 4750 3525 
L 4750 2588 
L 5288 2588 
Q 5588 2588 5888 2600 
Q 5875 2438 5888 2275 
Q 5588 2288 5288 2288 
L 4750 2288 
L 4750 1350 
L 5300 1350 
Q 5606 1350 5906 1363 
Q 5888 1200 5906 1038 
Q 5606 1050 5300 1050 
L 4750 1050 
L 4750 6 
L 5569 6 
Q 5869 6 6169 19 
z
M 4850 4188 
L 4456 3944 
L 3856 4900 
L 4250 5150 
L 4850 4188 
z
M 4331 6 
L 4331 1050 
L 3306 1050 
L 3306 6 
L 4331 6 
z
M 4331 1350 
L 4331 2288 
L 3306 2288 
L 3306 1350 
L 4331 1350 
z
M 4331 2588 
L 4331 3525 
L 3306 3525 
L 3306 2588 
L 4331 2588 
z
M 31 1769 
Q 600 1881 1125 2094 
L 1125 3425 
L 731 3425 
Q 438 3425 138 3413 
Q 156 3569 138 3731 
Q 438 3719 731 3719 
L 1125 3719 
L 1125 4275 
Q 1125 4700 1106 5125 
Q 1338 5100 1569 5125 
Q 1550 4700 1550 4275 
L 1550 3719 
L 2269 3731 
Q 2250 3569 2269 3413 
L 1550 3425 
L 1550 2269 
L 2150 2538 
L 2194 2281 
L 1550 1975 
L 1550 -113 
Q 1556 -650 1156 -788 
Q 825 -900 456 -869 
Q 500 -544 313 -363 
Q 500 -381 744 -384 
Q 988 -388 1056 -331 
Q 1125 -275 1125 50 
L 1125 1763 
L 863 1625 
L 256 1294 
Q 200 1581 31 1769 
z
" transform="scale(0.015625)"/>
      <path id="WenQuanYiZenHei-8ad6" d="M 4669 -769 
Q 4444 -744 4219 -769 
Q 4244 -356 4244 56 
L 4244 756 
L 3769 756 
L 3769 56 
Q 3769 -356 3788 -769 
Q 3569 -744 3344 -769 
Q 3363 -356 3363 56 
L 3363 756 
L 2844 756 
L 2844 88 
Q 2844 -325 2869 -738 
Q 2644 -713 2419 -738 
Q 2438 -325 2438 88 
L 2438 2200 
L 2844 2200 
L 2844 2169 
L 5625 2169 
L 5625 -213 
Q 5600 -563 5331 -681 
Q 5113 -794 4825 -794 
Q 4875 -506 4706 -269 
Q 4963 -350 5181 -300 
Q 5219 -269 5219 -88 
L 5219 756 
L 4650 756 
L 4650 56 
Q 4650 -356 4669 -769 
z
M 4925 3031 
Q 4913 2888 4925 2738 
Q 4656 2750 4388 2750 
L 3556 2750 
Q 3288 2750 3019 2738 
Q 3031 2881 3019 3025 
Q 2694 2600 2344 2256 
Q 2194 2463 1950 2538 
Q 2638 3175 3022 3750 
Q 3406 4325 3700 5156 
Q 3919 5044 4156 4975 
L 4063 4775 
Q 4469 4038 4937 3575 
Q 5406 3113 6175 2600 
Q 5950 2525 5819 2319 
Q 5344 2631 4800 3181 
Q 4256 3731 3863 4388 
Q 3450 3600 3019 3031 
Q 3288 3019 3556 3019 
L 4388 3019 
Q 4656 3019 4925 3031 
z
M 4650 1000 
L 5219 1000 
L 5219 1963 
L 4650 1963 
L 4650 1000 
z
M 4244 1000 
L 4244 1963 
L 3769 1963 
L 3769 1000 
L 4244 1000 
z
M 3363 1000 
L 3363 1963 
L 2844 1963 
L 2844 1000 
L 3363 1000 
z
M 544 -844 
Q 338 -819 138 -844 
Q 156 -431 156 -13 
L 156 1413 
L 1888 1413 
L 1888 -831 
L 1519 -831 
L 1519 -300 
L 525 -300 
Q 531 -569 544 -844 
z
M 1819 2444 
Q 1806 2294 1819 2144 
Q 1575 2156 1325 2156 
L 731 2156 
Q 481 2156 238 2144 
Q 250 2294 238 2444 
Q 481 2431 731 2431 
L 1325 2431 
Q 1575 2431 1819 2444 
z
M 1831 3394 
Q 1819 3244 1831 3094 
Q 1588 3106 1338 3106 
L 719 3106 
Q 469 3106 225 3094 
Q 238 3244 225 3394 
Q 469 3381 719 3381 
L 1338 3381 
Q 1588 3381 1831 3394 
z
M 2044 4356 
Q 2025 4206 2044 4056 
Q 1794 4075 1544 4075 
L 569 4075 
Q 319 4075 69 4056 
Q 88 4206 69 4356 
Q 319 4344 569 4344 
L 1544 4344 
Q 1794 4344 2044 4356 
z
M 1369 4731 
L 1125 4369 
L 450 4944 
L 694 5306 
L 1369 4731 
z
M 1519 1144 
L 525 1144 
L 525 -50 
L 1519 -50 
L 1519 1144 
z
" transform="scale(0.015625)"/>
     </defs>
     <use xlink:href="#WenQuanYiZenHei-4c"/>
     <use xlink:href="#WenQuanYiZenHei-4c" transform="translate(50 0)"/>
     <use xlink:href="#WenQuanYiZenHei-4d" transform="translate(100 0)"/>
     <use xlink:href="#WenQuanYiZenHei-20" transform="translate(181.933594 0)"/>
     <use xlink:href="#WenQuanYiZenHei-63a8" transform="translate(211.914062 0)"/>
     <use xlink:href="#WenQuanYiZenHei-8ad6" transform="translate(311.914062 0)"/>
    </g>
   </g>
   <g id="text_20">
    <!-- 對外服務 -->
    <g transform="translate(527.8725 1384.152375) scale(0.6 -0.6)">
     <defs>
      <path id="WenQuanYiZenHei-670d" d="M 3250 4831 
L 5475 4831 
L 5475 3438 
Q 5475 3188 5200 3031 
Q 4919 2863 4500 2869 
Q 4563 3169 4381 3406 
Q 4694 3363 4988 3394 
Q 5038 3406 5038 3506 
L 5038 4500 
L 3688 4500 
L 3688 2688 
L 5669 2688 
Q 5550 1338 5050 481 
Q 5500 -6 6194 -275 
Q 5963 -400 5869 -644 
Q 5263 -394 4806 119 
Q 4456 -338 3938 -663 
Q 3831 -569 3713 -494 
Q 3713 -538 3713 -588 
Q 3475 -563 3231 -588 
Q 3250 -144 3250 306 
L 3250 4831 
z
M 4350 2356 
Q 4375 1494 4769 863 
Q 5156 1538 5231 2356 
L 4350 2356 
z
M 3950 2356 
L 3694 2356 
L 3694 306 
Q 3694 19 3700 -263 
Q 4175 50 4519 500 
Q 3981 1325 3950 2356 
z
M 2238 3394 
L 2238 4375 
L 1331 4375 
L 1331 3394 
L 2238 3394 
z
M 2238 1913 
L 2238 3075 
L 1331 3075 
L 1331 1913 
L 2238 1913 
z
M 1756 -888 
Q 1800 -544 1613 -325 
Q 1738 -363 1881 -381 
Q 2138 -388 2188 -334 
Q 2238 -281 2238 100 
L 2238 1594 
L 1331 1594 
L 1331 1038 
Q 1325 -188 556 -731 
Q 406 -519 125 -438 
Q 869 -69 850 1038 
L 850 4694 
L 2713 4694 
L 2713 -144 
Q 2713 -469 2550 -644 
Q 2313 -875 1756 -888 
z
" transform="scale(0.015625)"/>
      <path id="WenQuanYiZenHei-52d9" d="M 5188 -25 
L 5188 1238 
L 4356 1238 
Q 4288 569 3809 31 
Q 3331 -506 2681 -725 
Q 2606 -463 2363 -338 
Q 2956 -219 3403 222 
Q 3850 663 3925 1238 
L 3425 1238 
Q 3113 1238 2800 1219 
Q 2819 1394 2800 1563 
Q 3113 1544 3425 1544 
L 3938 1544 
Q 3950 1850 3913 2119 
Q 4150 2094 4388 2119 
Q 4350 1850 4363 1544 
L 5619 1544 
L 5619 -106 
Q 5619 -306 5438 -463 
Q 5169 -681 4506 -675 
Q 4575 -375 4369 -156 
Q 4556 -175 4840 -178 
Q 5125 -181 5156 -150 
Q 5188 -119 5188 -25 
z
M 6113 2200 
Q 5900 2063 5825 1819 
Q 5094 2063 4438 2650 
Q 3688 2025 2775 1688 
Q 2631 1906 2425 2063 
Q 3375 2325 4131 2956 
Q 3794 3313 3506 3744 
Q 3231 3419 2875 3138 
Q 2769 3338 2563 3438 
Q 3006 3756 3265 4156 
Q 3525 4556 3719 5131 
Q 3938 5044 4175 5000 
Q 4075 4638 3894 4306 
L 5800 4306 
Q 5375 3531 4738 2919 
Q 5300 2463 6113 2200 
z
M 931 2850 
Q 619 2850 306 2831 
Q 325 3000 306 3169 
Q 619 3156 931 3156 
L 1363 3156 
L 881 3731 
L 1250 4031 
L 1531 3694 
L 2106 4444 
L 1194 4444 
Q 881 4444 569 4431 
Q 588 4600 569 4769 
Q 881 4756 1194 4756 
L 2650 4756 
L 2713 4388 
Q 2575 4338 2462 4203 
Q 2350 4069 1806 3356 
L 1925 3213 
L 1863 3156 
L 2813 3156 
L 2875 2788 
Q 2819 2825 2791 2781 
Q 2763 2738 2644 2503 
Q 2525 2269 2513 2231 
L 2131 2425 
L 2344 2850 
L 1994 2850 
L 1994 -150 
Q 1994 -525 1719 -669 
Q 1431 -819 888 -813 
Q 956 -513 744 -288 
Q 938 -313 1197 -316 
Q 1456 -319 1512 -272 
Q 1569 -225 1569 13 
L 1569 1950 
Q 1100 1206 481 419 
Q 325 588 106 638 
Q 588 1219 1125 2138 
L 1538 2850 
L 931 2850 
z
M 3806 4000 
Q 4106 3531 4413 3213 
Q 4775 3569 5050 4000 
L 3806 4000 
z
" transform="scale(0.015625)"/>
     </defs>
     <use xlink:href="#WenQuanYiZenHei-5c0d"/>
     <use xlink:href="#WenQuanYiZenHei-5916" transform="translate(100 0)"/>
     <use xlink:href="#WenQuanYiZenHei-670d" transform="translate(200 0)"/>
     <use xlink:href="#WenQuanYiZenHei-52d9" transform="translate(300 0)"/>
    </g>
   </g>
   <g id="text_21">
    <!-- 內部通道（loopback 127.0.0.1） -->
    <g transform="translate(920.16 1385.502375) scale(0.6 -0.6)">
     <defs>
      <path id="WenQuanYiZenHei-901a" d="M 1263 3344 
L 844 3344 
Q 531 3344 219 3331 
Q 231 3500 219 3669 
Q 531 3650 844 3650 
L 1694 3650 
L 1694 506 
Q 2163 156 2600 25 
Q 2944 -63 3669 -69 
L 6019 -88 
Q 5788 -250 5806 -538 
L 3669 -544 
Q 2206 -544 1463 263 
L 431 -488 
Q 325 -275 175 -94 
L 1263 513 
L 1263 3344 
z
M 1556 4600 
L 1225 4269 
L 525 4969 
L 856 5306 
L 1556 4600 
z
M 4150 325 
Q 3919 350 3681 325 
Q 3700 756 3700 1194 
L 3700 1525 
L 2713 1525 
L 2713 1175 
Q 2713 744 2738 306 
Q 2500 331 2263 306 
Q 2281 738 2281 1175 
L 2275 3875 
L 3738 3875 
Q 3406 4131 3056 4356 
L 3313 4750 
Q 3525 4613 3731 4463 
L 4594 4950 
L 2869 4950 
Q 2556 4950 2244 4938 
Q 2263 5106 2244 5275 
Q 2556 5263 2869 5263 
L 5456 5263 
L 5513 4894 
Q 5300 4856 5106 4750 
L 4106 4181 
L 4388 3944 
L 4325 3875 
L 5513 3875 
L 5513 1006 
Q 5488 619 5194 488 
Q 4963 375 4656 369 
Q 4706 675 4525 925 
Q 4638 894 4769 869 
Q 5006 863 5047 900 
Q 5088 938 5088 1150 
L 5088 1525 
L 4131 1525 
L 4131 1194 
Q 4131 756 4150 325 
z
M 4131 1831 
L 5088 1831 
L 5088 2544 
L 4131 2544 
L 4131 1831 
z
M 3700 1831 
L 3700 2544 
L 2706 2544 
L 2713 1831 
L 3700 1831 
z
M 4131 2850 
L 5088 2850 
L 5088 3563 
L 4131 3563 
L 4131 2850 
z
M 3700 2850 
L 3700 3563 
L 2706 3563 
L 2706 2850 
L 3700 2850 
z
" transform="scale(0.015625)"/>
      <path id="WenQuanYiZenHei-9053" d="M 3663 -556 
Q 2219 -575 1456 156 
L 413 -513 
Q 325 -300 194 -113 
L 1263 400 
L 1263 2838 
L 800 2838 
Q 506 2838 213 2825 
Q 231 2988 213 3144 
Q 506 3131 800 3131 
L 1681 3131 
L 1681 394 
Q 2188 88 2594 -19 
Q 2913 -94 3663 -94 
L 6019 -113 
Q 5788 -275 5806 -550 
L 3663 -556 
z
M 1569 3950 
L 1219 3650 
L 513 4500 
L 863 4794 
L 1569 3950 
z
M 2494 413 
Q 2569 1869 2494 3331 
L 3144 3331 
L 3425 3806 
L 2575 3806 
Q 2281 3806 1988 3788 
Q 2006 3950 1988 4106 
Q 2281 4094 2575 4094 
L 3088 4094 
Q 2788 4494 2444 4856 
L 2775 5175 
Q 3206 4725 3563 4213 
L 3394 4094 
L 3913 4094 
Q 4038 4269 4344 4819 
L 4544 5181 
Q 4738 5050 4950 4963 
Q 4788 4644 4413 4094 
L 5263 4094 
Q 5556 4094 5850 4106 
Q 5831 3950 5850 3788 
Q 5556 3806 5263 3806 
L 3963 3806 
Q 3806 3500 3644 3331 
L 5163 3331 
Q 5088 1869 5156 413 
L 2494 413 
z
M 2913 3038 
L 2913 2444 
L 4744 2444 
L 4744 3038 
L 3444 3038 
L 3431 3019 
Q 3419 3031 3400 3038 
L 2913 3038 
z
M 2913 2175 
L 2913 1563 
L 4738 1563 
L 4744 2175 
L 2913 2175 
z
M 2913 1300 
L 2913 700 
L 4738 700 
L 4738 1300 
L 2913 1300 
z
" transform="scale(0.015625)"/>
      <path id="WenQuanYiZenHei-ff08" d="M 5438 -1094 
L 5106 -1094 
Q 4306 -100 4175 1231 
Q 4156 1438 4156 1656 
Q 4156 3031 4994 4244 
Q 5044 4313 5100 4388 
L 5431 4388 
Q 4638 3169 4625 1681 
Q 4625 188 5438 -1094 
z
" transform="scale(0.015625)"/>
      <path id="WenQuanYiZenHei-62" d="M 3181 1669 
Q 3181 850 2756 356 
Q 2400 -63 1825 -63 
Q 1306 -63 956 363 
Q 881 456 825 556 
L 638 0 
L 394 0 
L 394 4388 
L 894 4388 
L 894 2713 
L 919 2713 
Q 1250 3338 1875 3338 
Q 2625 3338 2975 2619 
Q 3181 2194 3181 1669 
z
M 2644 1588 
Q 2644 2388 2281 2738 
L 2150 2838 
Q 1988 2931 1788 2931 
Q 1363 2931 1081 2525 
Q 894 2250 894 1938 
L 894 1363 
Q 894 831 1244 538 
Q 1463 338 1788 338 
Q 2375 338 2575 1031 
Q 2644 1288 2644 1588 
z
" transform="scale(0.015625)"/>
      <path id="WenQuanYiZenHei-ff09" d="M 2244 1656 
Q 2244 306 1519 -788 
Q 1413 -950 1294 -1094 
L 963 -1094 
Q 1775 188 1775 1681 
Q 1775 3169 988 4363 
Q 975 4375 969 4388 
L 1300 4388 
Q 2169 3231 2238 1863 
Q 2244 1763 2244 1656 
z
" transform="scale(0.015625)"/>
     </defs>
     <use xlink:href="#WenQuanYiZenHei-5167"/>
     <use xlink:href="#WenQuanYiZenHei-90e8" transform="translate(100 0)"/>
     <use xlink:href="#WenQuanYiZenHei-901a" transform="translate(200 0)"/>
     <use xlink:href="#WenQuanYiZenHei-9053" transform="translate(300 0)"/>
     <use xlink:href="#WenQuanYiZenHei-ff08" transform="translate(400 0)"/>
     <use xlink:href="#WenQuanYiZenHei-6c" transform="translate(500 0)"/>
     <use xlink:href="#WenQuanYiZenHei-6f" transform="translate(523.925781 0)"/>
     <use xlink:href="#WenQuanYiZenHei-6f" transform="translate(577.832031 0)"/>
     <use xlink:href="#WenQuanYiZenHei-70" transform="translate(631.738281 0)"/>
     <use xlink:href="#WenQuanYiZenHei-62" transform="translate(685.644531 0)"/>
     <use xlink:href="#WenQuanYiZenHei-61" transform="translate(739.550781 0)"/>
     <use xlink:href="#WenQuanYiZenHei-63" transform="translate(793.457031 0)"/>
     <use xlink:href="#WenQuanYiZenHei-6b" transform="translate(841.40625 0)"/>
     <use xlink:href="#WenQuanYiZenHei-20" transform="translate(891.40625 0)"/>
     <use xlink:href="#WenQuanYiZenHei-31" transform="translate(921.386719 0)"/>
     <use xlink:href="#WenQuanYiZenHei-32" transform="translate(981.347656 0)"/>
     <use xlink:href="#WenQuanYiZenHei-37" transform="translate(1041.308594 0)"/>
     <use xlink:href="#WenQuanYiZenHei-2e" transform="translate(1101.269531 0)"/>
     <use xlink:href="#WenQuanYiZenHei-30" transform="translate(1131.25 0)"/>
     <use xlink:href="#WenQuanYiZenHei-2e" transform="translate(1191.210938 0)"/>
     <use xlink:href="#WenQuanYiZenHei-30" transform="translate(1221.191406 0)"/>
     <use xlink:href="#WenQuanYiZenHei-2e" transform="translate(1281.152344 0)"/>
     <use xlink:href="#WenQuanYiZenHei-31" transform="translate(1311.132812 0)"/>
     <use xlink:href="#WenQuanYiZenHei-ff09" transform="translate(1371.09375 0)"/>
    </g>
   </g>
  </g>
 </g>
 <defs>
  <clipPath id="pb9549f5136">
   <rect x="7.2" y="7.2" width="2282.4" height="1418.4"/>
  </clipPath>
 </defs>
</svg>
