<svg xmlns="http://www.w3.org/2000/svg" width="900" height="1020" viewBox="0 0 900 1020" font-family="Noto Sans CJK TC, sans-serif">
<rect width="100%" height="100%" fill="#ffffff"/>
<defs><marker id="arrow" viewBox="0 0 10 10" refX="9" refY="5" markerWidth="7" markerHeight="7" orient="auto-start-reverse"><path d="M0,0 L10,5 L0,10 z" fill="#1a1a1a"/></marker></defs>
<line x1="450" y1="83" x2="450" y2="138" stroke="#1a1a1a" stroke-width="2"/>
<line x1="270" y1="138" x2="630" y2="138" stroke="#1a1a1a" stroke-width="2"/>
<line x1="270" y1="138" x2="270" y2="178.0" stroke="#1a1a1a" stroke-width="2" marker-end="url(#arrow)"/>
<line x1="630" y1="138" x2="630" y2="178.0" stroke="#1a1a1a" stroke-width="2" marker-end="url(#arrow)"/>
<line x1="270" y1="258.0" x2="270" y2="318.0" stroke="#1a1a1a" stroke-width="2" marker-end="url(#arrow)"/>
<line x1="270" y1="398.0" x2="270" y2="458.0" stroke="#1a1a1a" stroke-width="2" marker-end="url(#arrow)"/>
<line x1="270" y1="538.0" x2="270" y2="600.0" stroke="#1a1a1a" stroke-width="2" marker-end="url(#arrow)"/>
<line x1="630" y1="258.0" x2="630" y2="600.0" stroke="#1a1a1a" stroke-width="2" marker-end="url(#arrow)"/>
<line x1="270" y1="696.0" x2="270" y2="750.0" stroke="#1a1a1a" stroke-width="2" marker-end="url(#arrow)"/>
<line x1="630" y1="696.0" x2="630" y2="750.0" stroke="#1a1a1a" stroke-width="2" marker-end="url(#arrow)"/>
<line x1="450" y1="830.0" x2="450" y2="897" stroke="#1a1a1a" stroke-width="2" marker-end="url(#arrow)"/>
<text x="464" y="868.5" font-size="18" fill="#111111">查詢 / 回應</text>
<rect x="290.0" y="21.0" width="320" height="62" rx="31.0" ry="31.0" fill="#fff" stroke="#1a1a1a" stroke-width="2"/><text x="450" y="60" text-anchor="middle" font-size="23" font-weight="700" fill="#111111">水泥材料科學 PDF 文獻</text>
<rect x="125.0" y="178.0" width="290" height="80" fill="#fff" stroke="#1a1a1a" stroke-width="2"/><text x="270" y="212" text-anchor="middle" font-size="22" font-weight="700" fill="#111111">知識煉取</text><text x="270" y="240" text-anchor="middle" font-size="18" fill="#111111">PDF → 摘要 → QA → CoT</text>
<rect x="485.0" y="178.0" width="290" height="80" fill="#fff" stroke="#1a1a1a" stroke-width="2"/><text x="630" y="212" text-anchor="middle" font-size="22" font-weight="700" fill="#111111">向量資料庫建置</text><text x="630" y="240" text-anchor="middle" font-size="18" fill="#111111">分塊策略評估 → 向量化 → 索引</text>
<rect x="125.0" y="318.0" width="290" height="80" fill="#fff" stroke="#1a1a1a" stroke-width="2"/><text x="270" y="352" text-anchor="middle" font-size="22" font-weight="700" fill="#111111">模型訓練微調</text><text x="270" y="380" text-anchor="middle" font-size="18" fill="#111111">SFT / SFT-QA / RAFT</text>
<rect x="125.0" y="458.0" width="290" height="80" fill="#fff" stroke="#1a1a1a" stroke-width="2"/><text x="270" y="492" text-anchor="middle" font-size="22" font-weight="700" fill="#111111">權重合併與量化</text><text x="270" y="520" text-anchor="middle" font-size="18" fill="#111111">merge → GGUF 壓縮</text>
<path d="M135.0,610.0 L135.0,686.0 A135.0,10 0 0 0 405.0,686.0 L405.0,610.0" fill="#fff" stroke="#1a1a1a" stroke-width="2"/><ellipse cx="270" cy="610.0" rx="135.0" ry="10" fill="#fff" stroke="#1a1a1a" stroke-width="2"/><text x="270" y="646" text-anchor="middle" font-size="22" font-weight="700" fill="#111111">微調模型庫</text><text x="270" y="670" text-anchor="middle" font-size="18" fill="#111111">GGUF</text>
<path d="M495.0,610.0 L495.0,686.0 A135.0,10 0 0 0 765.0,686.0 L765.0,610.0" fill="#fff" stroke="#1a1a1a" stroke-width="2"/><ellipse cx="630" cy="610.0" rx="135.0" ry="10" fill="#fff" stroke="#1a1a1a" stroke-width="2"/><text x="630" y="646" text-anchor="middle" font-size="22" font-weight="700" fill="#111111">向量資料庫</text><text x="630" y="670" text-anchor="middle" font-size="18" fill="#111111">FAISS</text>
<rect x="215.0" y="749.0" width="470" height="82" fill="#fff" stroke="#1a1a1a" stroke-width="2"/><text x="450" y="784" text-anchor="middle" font-size="22" font-weight="700" fill="#111111">推論與部署</text><text x="450" y="812" text-anchor="middle" font-size="18" fill="#111111">llama.cpp + RAG 檢索 + 資源排程</text>
<rect x="300.0" y="897.0" width="300" height="62" rx="31.0" ry="31.0" fill="#fff" stroke="#1a1a1a" stroke-width="2"/><text x="450" y="936" text-anchor="middle" font-size="23" font-weight="700" fill="#111111">使用者</text>
<text x="200" y="1000" text-anchor="middle" font-size="18" fill="#111111">圓角矩形 = 外部實體</text>
<text x="450" y="1000" text-anchor="middle" font-size="18" fill="#111111">方角矩形 = 功能模組</text>
<text x="700" y="1000" text-anchor="middle" font-size="18" fill="#111111">圓柱體 = 資料儲存</text>
</svg>